<svg width="406" height="346" viewBox="0 0 406 346" fill="none" xmlns="http://www.w3.org/2000/svg">
<path d="M90.7311 93.5922C99.1747 45.1695 145.274 12.76 193.697 21.2036L350.769 48.5925L324.105 201.505C310.871 277.403 238.614 328.203 162.715 314.968L55.3927 296.254L90.7311 93.5922Z" fill="white"/>
<path d="M397.299 7L395.899 15.1797L380.685 104.173L380.683 104.183C375.893 131.968 359.579 156.747 337.721 173.73C353.873 191.59 361.316 217.103 356.559 244.935C351.309 275.671 332.282 302.777 307.322 319.865C289.996 332.023 269.422 338.689 248.266 338.999L248.214 339H8.69824L10.1006 330.817L38.8184 163.232V163.23C46.9245 116.015 91.5505 77.7275 138.941 77.7275H316.204L314.793 85.916L311.258 106.427C310.29 112.125 307.342 117.301 302.931 121.036C298.513 124.777 292.914 126.832 287.126 126.836H132.909C111.834 126.836 91.3086 144.264 87.6777 165.59L87.6748 165.602L87.6729 165.614L85.6504 177.238L78.4707 219.201H262.887C269.377 219.201 275.599 221.779 280.19 226.367C284.781 230.955 287.365 237.177 287.379 243.667V243.678C287.38 245.063 287.273 246.447 287.058 247.815L287.051 247.86L287.043 247.906C286.07 253.611 283.114 258.79 278.696 262.527C274.278 266.265 268.682 268.32 262.896 268.327H79.1543C76.6129 268.327 74.1515 269.227 72.2061 270.869C70.2606 272.512 68.9563 274.792 68.5254 277.308L68.5234 277.319L68.5205 277.331L66.3105 289.983H254.158C278.832 289.983 303.236 268.827 307.699 242.616C309.893 229.731 306.795 218.479 300.502 210.538C294.235 202.631 284.48 197.581 272.38 197.581H137.119V197.58C133.902 197.583 130.715 196.952 127.742 195.722C124.767 194.49 122.064 192.684 119.787 190.406C117.51 188.129 115.704 185.425 114.473 182.449C113.241 179.474 112.607 176.284 112.607 173.063C112.606 171.694 112.715 170.326 112.934 168.974L112.939 168.939L112.945 168.906C113.924 163.201 116.883 158.024 121.304 154.288C125.725 150.552 131.323 148.498 137.11 148.491H277.428C302.828 148.491 327.572 127.482 331.915 101.843L331.917 101.829L339.754 56.0898H66.6875L77.4385 44.3604C88.2236 32.5937 101.332 23.1968 115.933 16.7656C130.534 10.3345 146.309 7.00898 162.261 7H397.299Z" fill="url(#paint0_linear_129_190)" stroke="white" stroke-width="14"/>
<defs>
<linearGradient id="paint0_linear_129_190" x1="642.886" y1="71.0418" x2="57.6966" y2="206.624" gradientUnits="userSpaceOnUse">
<stop stop-color="#22B184"/>
<stop offset="0.09" stop-color="#37B481"/>
<stop offset="1" stop-color="#A0CD54"/>
</linearGradient>
</defs>
</svg>
