<svg width="372" height="318" viewBox="0 0 372 318" fill="none" xmlns="http://www.w3.org/2000/svg">
<path d="M309.918 158.9C328.304 175.012 337.615 200.76 332.659 229.755C327.757 258.458 309.9 284.005 286.302 300.136C270.125 311.487 250.915 317.711 231.163 318H0L28.7177 150.415C36.2616 106.474 78.0444 70.7275 121.941 70.7275H290.894L287.359 91.2377C286.671 95.3178 284.562 99.0221 281.407 101.694C278.251 104.366 274.254 105.833 270.121 105.836H115.909C91.3464 105.836 67.9677 125.799 63.7766 150.415L61.754 162.038L53.1715 212.201H245.886C250.519 212.201 254.963 214.041 258.243 217.319C261.522 220.596 263.37 225.042 263.379 229.682C263.38 230.702 263.301 231.721 263.142 232.729C262.446 236.809 260.333 240.512 257.176 243.183C254.018 245.854 250.02 247.322 245.886 247.327H62.1549C57.9593 247.327 53.8987 248.812 50.6909 251.52C47.4831 254.228 45.3347 257.985 44.6254 262.126L40.9811 282.983H237.158C265.493 282.983 292.607 259.115 297.6 229.791C302.593 200.468 283.715 176.581 255.38 176.581H120.119C117.82 176.584 115.543 176.133 113.419 175.253C111.294 174.374 109.364 173.084 107.738 171.457C106.111 169.83 104.821 167.898 103.941 165.772C103.061 163.645 102.607 161.366 102.607 159.064C102.606 158.068 102.686 157.073 102.844 156.09C103.544 152.008 105.661 148.305 108.822 145.634C111.982 142.963 115.983 141.496 120.119 141.491H260.427C289.309 141.491 316.915 117.952 321.817 89.0115L331.055 35.09H65.5988C75.7292 24.0377 88.0408 15.212 101.754 9.17179C115.467 3.13158 130.284 0.00840021 145.265 0L372 0L356.785 88.9933C351.865 117.532 333.807 142.933 309.918 158.9Z" fill="url(#paint0_linear_123_190)"/>
<defs>
<linearGradient id="paint0_linear_123_190" x1="625.886" y1="57.0418" x2="40.6966" y2="192.624" gradientUnits="userSpaceOnUse">
<stop stop-color="#22B184"/>
<stop offset="0.09" stop-color="#37B481"/>
<stop offset="1" stop-color="#A0CD54"/>
</linearGradient>
</defs>
</svg>
