<svg width="4285" height="911" viewBox="0 0 4285 911" fill="none" xmlns="http://www.w3.org/2000/svg">
<rect x="352" y="78" width="3722" height="469" fill="white"/>
<rect x="263" y="314" width="2021" height="559" fill="white"/>
<mask id="path-3-outside-1_144_189" maskUnits="userSpaceOnUse" x="79.9893" y="0" width="4206" height="911" fill="black">
<rect fill="white" x="79.9893" width="4206" height="911"/>
<path d="M1049.74 869.413L1089.58 640.737H1239.33L1232.24 680.59H1132.14L1122.5 736.384H1209.12L1202.03 776.237H1115.72L1099.78 868.377L1049.74 869.413Z"/>
<path d="M1286.75 869.413H1236.86L1276.71 640.737H1326.59L1286.75 869.413Z"/>
<path d="M1525.35 640.737L1518.26 683.618H1454.5L1421.99 869.812H1372.74L1404.93 683.618H1341.18L1348.27 641.135L1525.35 640.737Z"/>
<path d="M1580.74 730.246L1556.27 869.094H1506.23L1546.07 640.737H1584.41L1659.72 778.628L1683.63 640.737H1733.51L1693.67 869.413H1655.73L1580.74 730.246Z"/>
<path d="M1750.33 869.413L1790.18 640.737H1939.92L1932.83 680.59H1832.97L1823.33 736.384H1909.96L1902.86 776.237H1816.08L1807.07 828.205H1906.85L1900.08 868.058L1750.33 869.413Z"/>
<path d="M1983.68 796.881C1983.72 801.31 1984.69 805.681 1986.51 809.715C1988.34 813.75 1990.99 817.359 1994.29 820.314C1997.58 823.269 2001.46 825.503 2005.67 826.876C2009.88 828.248 2014.33 828.728 2018.74 828.285C2036.19 828.285 2054.52 821.749 2057.07 804.373C2058.67 795.605 2055.48 787.396 2035.24 779.903L2012.05 771.454C1965.03 754.079 1963.35 722.116 1966.62 703.465C1973.39 662.337 2010.69 636.831 2054.28 636.831C2089.03 636.831 2113.18 653.808 2120.59 686.807L2076.76 707.53C2071.58 684.336 2055.48 681.706 2046.47 681.706C2031.01 681.706 2018.1 687.604 2015.55 702.987C2014.6 708.885 2014.28 719.646 2035.56 727.457L2057.39 735.427C2105.21 752.724 2109.27 782.773 2105.69 803.656C2097 851.479 2052.61 872.92 2012.68 872.92C1969.81 872.92 1934.11 848.132 1937.61 805.648L1983.68 796.881Z"/>
<path d="M2175.66 796.881C2175.7 801.31 2176.67 805.681 2178.5 809.715C2180.32 813.75 2182.97 817.359 2186.27 820.314C2189.57 823.269 2193.45 825.503 2197.66 826.876C2201.87 828.248 2206.32 828.728 2210.72 828.285C2228.18 828.285 2246.51 821.749 2249.06 804.373C2250.65 795.605 2247.46 787.396 2227.14 779.903L2204.03 771.454C2157.01 754.079 2155.34 722.116 2158.6 703.465C2165.38 662.337 2202.68 636.831 2246.27 636.831C2281.02 636.831 2305.16 653.808 2312.57 686.807L2268.66 707.53C2263.48 684.336 2247.38 681.706 2238.38 681.706C2222.92 681.706 2210.01 687.604 2207.46 702.987C2206.5 708.885 2206.18 719.646 2227.38 727.457L2249.3 735.427C2297.11 752.724 2301.18 782.773 2297.59 803.656C2288.9 851.479 2244.52 872.92 2204.59 872.92C2161.71 872.92 2126.01 848.132 2129.52 805.648L2175.66 796.881Z"/>
<path d="M933.786 455.261C982.16 497.585 1006.63 565.175 993.557 641.295C986.488 678.626 972.076 714.181 951.159 745.897C930.241 777.614 903.234 804.859 871.704 826.053C829.171 855.863 778.671 872.218 726.74 873H118.989L194.46 432.943C214.623 317.609 324.123 223.715 439.521 223.715H884.057L874.493 277.596C872.668 288.301 867.114 298.015 858.814 305.018C850.515 312.02 840.005 315.859 829.147 315.855H423.741C359.109 315.855 297.664 368.302 286.587 432.943L258.773 595.145H765.471C777.653 595.145 789.337 599.979 797.958 608.587C806.58 617.195 811.434 628.872 811.455 641.056C811.437 643.724 811.224 646.388 810.817 649.026C808.977 659.725 803.419 669.429 795.122 676.429C786.826 683.428 776.325 687.273 765.471 687.285H282.443C271.402 687.293 260.719 691.2 252.278 698.316C243.836 705.432 238.177 715.3 236.3 726.182L226.896 780.94H742.519C816.954 780.94 888.28 718.291 901.43 641.295C914.58 564.299 864.85 501.57 790.416 501.57H434.819C428.773 501.581 422.785 500.399 417.197 498.092C411.609 495.786 406.53 492.4 402.252 488.128C397.973 483.856 394.579 478.783 392.263 473.198C389.947 467.613 388.755 461.626 388.755 455.58C388.765 452.911 388.978 450.246 389.393 447.609C391.233 436.89 396.8 427.165 405.111 420.15C413.423 413.136 423.944 409.283 434.819 409.271H803.406C879.355 409.271 951.797 347.498 964.787 271.539L989.094 129.901H291.289C317.96 100.904 350.361 77.7635 386.441 61.944C422.52 46.1244 461.491 37.9709 500.885 38.0001H1097L1057.15 271.698C1044.08 346.622 996.585 413.336 933.786 455.261Z"/>
<path d="M1475.46 181.949C1482.9 138.217 1481.73 106.494 1471.96 86.7801C1467.6 77.4762 1461.34 69.1878 1453.58 62.4478C1445.83 55.7078 1436.75 50.6653 1426.93 47.6444C1406.69 41.2148 1375.85 38 1334.4 38H1203.39L1117.48 543.655H1269.45C1322.58 543.655 1358.07 540.626 1375.92 534.568C1393.78 528.649 1409.03 516.701 1419.04 500.773C1429.67 484.354 1437.85 459.06 1443.59 424.893L1451.55 377.946C1457.13 345.027 1455.78 320.637 1447.73 304.696C1439.68 288.755 1420.95 277.357 1391.94 270.502C1420.23 264.285 1439.76 255.358 1451.32 243.641C1462.87 231.925 1470.44 211.361 1475.46 181.949ZM1322.93 362.802L1314.96 409.908C1311.53 430.393 1306.99 443.146 1300.85 448.406C1294.72 453.667 1282.44 456.377 1263.87 457.094L1287.78 315.616C1307.23 316.254 1318.86 318.884 1322.69 323.587C1326.51 328.289 1326.35 340.883 1322.93 362.802ZM1354.81 172.623C1349.49 202.593 1344.63 220.739 1340.22 227.063C1335.68 233.439 1326.83 236.548 1313.92 236.548C1310.81 236.548 1306.43 236.548 1300.77 236.946L1319.9 124.481C1328.92 124.169 1337.93 125.135 1346.68 127.35C1349.1 128.444 1351.23 130.111 1352.86 132.208C1354.5 134.305 1355.61 136.768 1356.08 139.386C1357.81 150.443 1357.38 161.731 1354.81 172.623Z"/>
<path d="M1809.06 81.8383C1804.39 72.5052 1797.66 64.3557 1789.37 58.0044C1781.09 51.6531 1771.47 47.2658 1761.25 45.1735C1740 40.3912 1698.48 38 1636.69 38H1543.6L1457.77 543.655H1589.27L1627.92 315.616C1646.09 315.616 1656.69 318.884 1659.8 325.34C1662.9 331.796 1662.27 348.535 1657.64 375.555L1629.19 543.655H1751.21L1773.84 410.227C1780.85 369.497 1783.96 344.549 1783.32 335.463C1781.96 324.719 1777.96 314.48 1771.69 305.653C1764.52 295.025 1748.58 286.39 1723.87 279.748C1753.04 277.038 1773.65 268.908 1785.71 255.358C1797.77 241.808 1807.15 215.372 1813.85 176.051C1821.02 133.01 1819.42 101.765 1809.06 81.8383ZM1693.75 163.537L1688.96 191.354C1685.22 213.672 1679.96 226.823 1673.03 231.207C1663.11 235.963 1652.12 238.051 1641.15 237.265L1660.2 124.8C1675.5 124.8 1685.46 127.35 1690.32 132.292C1695.18 137.234 1696.46 147.516 1693.75 163.537Z"/>
<path d="M2039.06 331.238L2067.27 235.033H1973.24L1989.49 139.227H2137.01L2166.1 38H1875.21L1789.38 543.575H2017.31L2046.47 442.428H1938.01L1956.9 331.238H2039.06Z"/>
<path d="M2203.79 38L2050.86 543.655H2186.82L2210.17 452.471H2257.11L2249.14 543.416H2382.86L2393.78 38H2203.79ZM2268.9 363.041H2223.48C2234.58 318.353 2255.01 247.6 2284.76 150.784C2277.27 235.007 2271.98 305.759 2268.9 363.041Z"/>
<path d="M4126.26 38C4095.66 116.856 4072.18 183.277 4055.81 237.265C4059.16 203.151 4059.77 136.729 4057.65 38H3936.91L3974.6 360.57L3971.73 377.707L4096.3 360.57L4247 38H4126.26Z"/>
<path d="M3717.83 38L3599.64 428.559L3900.41 387.192L3907.82 38H3717.83ZM3782.94 363.041H3737.67C3748.62 318.353 3769.04 247.6 3798.96 150.784C3791.36 235.007 3786.02 305.759 3782.94 363.041Z"/>
<path d="M3546.4 38C3509.21 154.902 3476.59 274.621 3448.54 397.155L3466.71 204.825C3475.32 108.38 3479.94 52.7722 3480.58 38H3344.14C3300.36 181.046 3268.62 296.699 3248.91 384.96L3280.3 38H3152.79L3128.49 493.44L3312.42 468.412C3341.22 375.9 3360.61 312.667 3370.6 278.712C3367.09 344.23 3365.13 405.073 3364.7 461.239L3560.75 434.298L3673.92 38H3546.4Z"/>
<path d="M2915.7 38L2762.85 543.575L2903.67 524.207L2922.08 452.471H2969.1L2963.28 516.236L3096.05 497.983L3105.69 38H2915.7ZM2980.57 363.041H2935.31C2946.31 318.353 2966.73 247.6 2996.59 150.784C2989.15 235.007 2983.81 305.759 2980.57 363.041Z"/>
<path d="M2817.36 38H2694.07L2602.18 234.396L2635.5 38H2504.08L2418.25 543.575H2549.67L2586.48 326.855L2602.9 543.575H2738.78L2703.24 266.278L2817.36 38Z"/>
<path d="M3965.52 413.973L3943.52 543.575H4065.3L4089.28 402.097L3965.52 413.973Z"/>
<path d="M3772.34 432.385L3762.78 543.575H3897.14L3899.77 420.27L3772.34 432.385Z"/>
<path d="M3593.42 449.522L3564.97 543.575H3700.85L3728.27 436.61L3593.42 449.522Z"/>
<path d="M3364.7 471.361C3364.7 496.389 3364.7 520.46 3365.42 543.575H3529.43L3555.33 453.188L3364.7 471.361Z"/>
<path d="M3128.33 493.998L3125.78 543.575H3288.83L3309.79 476.622L3128.33 493.998Z"/>
<path d="M2903.67 524.286L2898.73 543.575H2762.85L2903.67 524.286Z"/>
<path d="M3096.05 497.904L3095.09 543.575H2960.73L2963.28 516.156L3096.05 497.904Z"/>
</mask>
<path d="M1049.74 869.413L1089.58 640.737H1239.33L1232.24 680.59H1132.14L1122.5 736.384H1209.12L1202.03 776.237H1115.72L1099.78 868.377L1049.74 869.413Z" fill="black"/>
<path d="M1286.75 869.413H1236.86L1276.71 640.737H1326.59L1286.75 869.413Z" fill="black"/>
<path d="M1525.35 640.737L1518.26 683.618H1454.5L1421.99 869.812H1372.74L1404.93 683.618H1341.18L1348.27 641.135L1525.35 640.737Z" fill="black"/>
<path d="M1580.74 730.246L1556.27 869.094H1506.23L1546.07 640.737H1584.41L1659.72 778.628L1683.63 640.737H1733.51L1693.67 869.413H1655.73L1580.74 730.246Z" fill="black"/>
<path d="M1750.33 869.413L1790.18 640.737H1939.92L1932.83 680.59H1832.97L1823.33 736.384H1909.96L1902.86 776.237H1816.08L1807.07 828.205H1906.85L1900.08 868.058L1750.33 869.413Z" fill="black"/>
<path d="M1983.68 796.881C1983.72 801.31 1984.69 805.681 1986.51 809.715C1988.34 813.75 1990.99 817.359 1994.29 820.314C1997.58 823.269 2001.46 825.503 2005.67 826.876C2009.88 828.248 2014.33 828.728 2018.74 828.285C2036.19 828.285 2054.52 821.749 2057.07 804.373C2058.67 795.605 2055.48 787.396 2035.24 779.903L2012.05 771.454C1965.03 754.079 1963.35 722.116 1966.62 703.465C1973.39 662.337 2010.69 636.831 2054.28 636.831C2089.03 636.831 2113.18 653.808 2120.59 686.807L2076.76 707.53C2071.58 684.336 2055.48 681.706 2046.47 681.706C2031.01 681.706 2018.1 687.604 2015.55 702.987C2014.6 708.885 2014.28 719.646 2035.56 727.457L2057.39 735.427C2105.21 752.724 2109.27 782.773 2105.69 803.656C2097 851.479 2052.61 872.92 2012.68 872.92C1969.81 872.92 1934.11 848.132 1937.61 805.648L1983.68 796.881Z" fill="black"/>
<path d="M2175.66 796.881C2175.7 801.31 2176.67 805.681 2178.5 809.715C2180.32 813.75 2182.97 817.359 2186.27 820.314C2189.57 823.269 2193.45 825.503 2197.66 826.876C2201.87 828.248 2206.32 828.728 2210.72 828.285C2228.18 828.285 2246.51 821.749 2249.06 804.373C2250.65 795.605 2247.46 787.396 2227.14 779.903L2204.03 771.454C2157.01 754.079 2155.34 722.116 2158.6 703.465C2165.38 662.337 2202.68 636.831 2246.27 636.831C2281.02 636.831 2305.16 653.808 2312.57 686.807L2268.66 707.53C2263.48 684.336 2247.38 681.706 2238.38 681.706C2222.92 681.706 2210.01 687.604 2207.46 702.987C2206.5 708.885 2206.18 719.646 2227.38 727.457L2249.3 735.427C2297.11 752.724 2301.18 782.773 2297.59 803.656C2288.9 851.479 2244.52 872.92 2204.59 872.92C2161.71 872.92 2126.01 848.132 2129.52 805.648L2175.66 796.881Z" fill="black"/>
<path d="M933.786 455.261C982.16 497.585 1006.63 565.175 993.557 641.295C986.488 678.626 972.076 714.181 951.159 745.897C930.241 777.614 903.234 804.859 871.704 826.053C829.171 855.863 778.671 872.218 726.74 873H118.989L194.46 432.943C214.623 317.609 324.123 223.715 439.521 223.715H884.057L874.493 277.596C872.668 288.301 867.114 298.015 858.814 305.018C850.515 312.02 840.005 315.859 829.147 315.855H423.741C359.109 315.855 297.664 368.302 286.587 432.943L258.773 595.145H765.471C777.653 595.145 789.337 599.979 797.958 608.587C806.58 617.195 811.434 628.872 811.455 641.056C811.437 643.724 811.224 646.388 810.817 649.026C808.977 659.725 803.419 669.429 795.122 676.429C786.826 683.428 776.325 687.273 765.471 687.285H282.443C271.402 687.293 260.719 691.2 252.278 698.316C243.836 705.432 238.177 715.3 236.3 726.182L226.896 780.94H742.519C816.954 780.94 888.28 718.291 901.43 641.295C914.58 564.299 864.85 501.57 790.416 501.57H434.819C428.773 501.581 422.785 500.399 417.197 498.092C411.609 495.786 406.53 492.4 402.252 488.128C397.973 483.856 394.579 478.783 392.263 473.198C389.947 467.613 388.755 461.626 388.755 455.58C388.765 452.911 388.978 450.246 389.393 447.609C391.233 436.89 396.8 427.165 405.111 420.15C413.423 413.136 423.944 409.283 434.819 409.271H803.406C879.355 409.271 951.797 347.498 964.787 271.539L989.094 129.901H291.289C317.96 100.904 350.361 77.7635 386.441 61.944C422.52 46.1244 461.491 37.9709 500.885 38.0001H1097L1057.15 271.698C1044.08 346.622 996.585 413.336 933.786 455.261Z" fill="url(#paint0_linear_144_189)"/>
<path d="M1475.46 181.949C1482.9 138.217 1481.73 106.494 1471.96 86.7801C1467.6 77.4762 1461.34 69.1878 1453.58 62.4478C1445.83 55.7078 1436.75 50.6653 1426.93 47.6444C1406.69 41.2148 1375.85 38 1334.4 38H1203.39L1117.48 543.655H1269.45C1322.58 543.655 1358.07 540.626 1375.92 534.568C1393.78 528.649 1409.03 516.701 1419.04 500.773C1429.67 484.354 1437.85 459.06 1443.59 424.893L1451.55 377.946C1457.13 345.027 1455.78 320.637 1447.73 304.696C1439.68 288.755 1420.95 277.357 1391.94 270.502C1420.23 264.285 1439.76 255.358 1451.32 243.641C1462.87 231.925 1470.44 211.361 1475.46 181.949ZM1322.93 362.802L1314.96 409.908C1311.53 430.393 1306.99 443.146 1300.85 448.406C1294.72 453.667 1282.44 456.377 1263.87 457.094L1287.78 315.616C1307.23 316.254 1318.86 318.884 1322.69 323.587C1326.51 328.289 1326.35 340.883 1322.93 362.802ZM1354.81 172.623C1349.49 202.593 1344.63 220.739 1340.22 227.063C1335.68 233.439 1326.83 236.548 1313.92 236.548C1310.81 236.548 1306.43 236.548 1300.77 236.946L1319.9 124.481C1328.92 124.169 1337.93 125.135 1346.68 127.35C1349.1 128.444 1351.23 130.111 1352.86 132.208C1354.5 134.305 1355.61 136.768 1356.08 139.386C1357.81 150.443 1357.38 161.731 1354.81 172.623Z" fill="url(#paint1_linear_144_189)"/>
<path d="M1809.06 81.8383C1804.39 72.5052 1797.66 64.3557 1789.37 58.0044C1781.09 51.6531 1771.47 47.2658 1761.25 45.1735C1740 40.3912 1698.48 38 1636.69 38H1543.6L1457.77 543.655H1589.27L1627.92 315.616C1646.09 315.616 1656.69 318.884 1659.8 325.34C1662.9 331.796 1662.27 348.535 1657.64 375.555L1629.19 543.655H1751.21L1773.84 410.227C1780.85 369.497 1783.96 344.549 1783.32 335.463C1781.96 324.719 1777.96 314.48 1771.69 305.653C1764.52 295.025 1748.58 286.39 1723.87 279.748C1753.04 277.038 1773.65 268.908 1785.71 255.358C1797.77 241.808 1807.15 215.372 1813.85 176.051C1821.02 133.01 1819.42 101.765 1809.06 81.8383ZM1693.75 163.537L1688.96 191.354C1685.22 213.672 1679.96 226.823 1673.03 231.207C1663.11 235.963 1652.12 238.051 1641.15 237.265L1660.2 124.8C1675.5 124.8 1685.46 127.35 1690.32 132.292C1695.18 137.234 1696.46 147.516 1693.75 163.537Z" fill="url(#paint2_linear_144_189)"/>
<path d="M2039.06 331.238L2067.27 235.033H1973.24L1989.49 139.227H2137.01L2166.1 38H1875.21L1789.38 543.575H2017.31L2046.47 442.428H1938.01L1956.9 331.238H2039.06Z" fill="url(#paint3_linear_144_189)"/>
<path d="M2203.79 38L2050.86 543.655H2186.82L2210.17 452.471H2257.11L2249.14 543.416H2382.86L2393.78 38H2203.79ZM2268.9 363.041H2223.48C2234.58 318.353 2255.01 247.6 2284.76 150.784C2277.27 235.007 2271.98 305.759 2268.9 363.041Z" fill="url(#paint4_linear_144_189)"/>
<path d="M4126.26 38C4095.66 116.856 4072.18 183.277 4055.81 237.265C4059.16 203.151 4059.77 136.729 4057.65 38H3936.91L3974.6 360.57L3971.73 377.707L4096.3 360.57L4247 38H4126.26Z" fill="url(#paint5_linear_144_189)"/>
<path d="M3717.83 38L3599.64 428.559L3900.41 387.192L3907.82 38H3717.83ZM3782.94 363.041H3737.67C3748.62 318.353 3769.04 247.6 3798.96 150.784C3791.36 235.007 3786.02 305.759 3782.94 363.041Z" fill="url(#paint6_linear_144_189)"/>
<path d="M3546.4 38C3509.21 154.902 3476.59 274.621 3448.54 397.155L3466.71 204.825C3475.32 108.38 3479.94 52.7722 3480.58 38H3344.14C3300.36 181.046 3268.62 296.699 3248.91 384.96L3280.3 38H3152.79L3128.49 493.44L3312.42 468.412C3341.22 375.9 3360.61 312.667 3370.6 278.712C3367.09 344.23 3365.13 405.073 3364.7 461.239L3560.75 434.298L3673.92 38H3546.4Z" fill="url(#paint7_linear_144_189)"/>
<path d="M2915.7 38L2762.85 543.575L2903.67 524.207L2922.08 452.471H2969.1L2963.28 516.236L3096.05 497.983L3105.69 38H2915.7ZM2980.57 363.041H2935.31C2946.31 318.353 2966.73 247.6 2996.59 150.784C2989.15 235.007 2983.81 305.759 2980.57 363.041Z" fill="url(#paint8_linear_144_189)"/>
<path d="M2817.36 38H2694.07L2602.18 234.396L2635.5 38H2504.08L2418.25 543.575H2549.67L2586.48 326.855L2602.9 543.575H2738.78L2703.24 266.278L2817.36 38Z" fill="url(#paint9_linear_144_189)"/>
<path d="M3965.52 413.973L3943.52 543.575H4065.3L4089.28 402.097L3965.52 413.973Z" fill="#A0CD55"/>
<path d="M3772.34 432.385L3762.78 543.575H3897.14L3899.77 420.27L3772.34 432.385Z" fill="#A0CD55"/>
<path d="M3593.42 449.522L3564.97 543.575H3700.85L3728.27 436.61L3593.42 449.522Z" fill="#A0CD55"/>
<path d="M3364.7 471.361C3364.7 496.389 3364.7 520.46 3365.42 543.575H3529.43L3555.33 453.188L3364.7 471.361Z" fill="#A0CD55"/>
<path d="M3128.33 493.998L3125.78 543.575H3288.83L3309.79 476.622L3128.33 493.998Z" fill="#A0CD55"/>
<path d="M2903.67 524.286L2898.73 543.575H2762.85L2903.67 524.286Z" fill="#A0CD55"/>
<path d="M3096.05 497.904L3095.09 543.575H2960.73L2963.28 516.156L3096.05 497.904Z" fill="#A0CD55"/>
<path d="M1049.74 869.413L1012.3 862.89C1010.35 874.078 1013.51 885.552 1020.91 894.168C1028.3 902.784 1039.17 907.64 1050.52 907.405L1049.74 869.413ZM1089.58 640.737V602.737C1071.11 602.737 1055.32 616.018 1052.15 634.213L1089.58 640.737ZM1239.33 640.737L1276.74 647.395C1278.71 636.326 1275.68 624.953 1268.46 616.334C1261.24 607.715 1250.57 602.737 1239.33 602.737V640.737ZM1232.24 680.59V718.59C1250.65 718.59 1266.42 705.381 1269.65 687.248L1232.24 680.59ZM1132.14 680.59V642.59C1113.65 642.59 1097.84 655.898 1094.69 674.118L1132.14 680.59ZM1122.5 736.384L1085.05 729.912C1083.14 740.959 1086.21 752.284 1093.43 760.859C1100.65 769.434 1111.29 774.384 1122.5 774.384V736.384ZM1209.12 736.384L1246.54 743.042C1248.51 731.973 1245.47 720.6 1238.25 711.981C1231.03 703.363 1220.37 698.384 1209.12 698.384V736.384ZM1202.03 776.237V814.237C1220.45 814.237 1236.22 801.029 1239.44 782.895L1202.03 776.237ZM1115.72 776.237V738.237C1097.23 738.237 1081.43 751.543 1078.28 769.76L1115.72 776.237ZM1099.78 868.377L1100.57 906.369C1118.76 905.992 1134.13 892.779 1137.23 874.854L1099.78 868.377ZM1286.75 869.413V907.413C1305.22 907.413 1321.01 894.132 1324.18 875.936L1286.75 869.413ZM1236.86 869.413L1199.42 862.89C1197.5 873.942 1200.55 885.281 1207.77 893.868C1214.99 902.455 1225.64 907.413 1236.86 907.413V869.413ZM1276.71 640.737V602.737C1258.24 602.737 1242.44 616.018 1239.27 634.213L1276.71 640.737ZM1326.59 640.737L1364.03 647.26C1365.96 636.207 1362.9 624.869 1355.68 616.281C1348.46 607.694 1337.81 602.737 1326.59 602.737V640.737ZM1525.35 640.737L1562.84 646.938C1564.67 635.911 1561.54 624.64 1554.3 616.124C1547.06 607.608 1536.44 602.712 1525.27 602.737L1525.35 640.737ZM1518.26 683.618V721.618C1536.85 721.618 1552.72 708.164 1555.75 689.82L1518.26 683.618ZM1454.5 683.618V645.618C1436.04 645.618 1420.25 658.892 1417.07 677.081L1454.5 683.618ZM1421.99 869.812V907.812C1440.45 907.812 1456.25 894.538 1459.42 876.349L1421.99 869.812ZM1372.74 869.812L1335.29 863.337C1333.38 874.383 1336.45 885.71 1343.67 894.286C1350.89 902.862 1361.53 907.812 1372.74 907.812V869.812ZM1404.93 683.618L1442.38 690.093C1444.29 679.047 1441.22 667.72 1434 659.144C1426.78 650.569 1416.14 645.618 1404.93 645.618V683.618ZM1341.18 683.618L1303.7 677.361C1301.86 688.38 1304.96 699.651 1312.18 708.177C1319.4 716.702 1330.01 721.618 1341.18 721.618V683.618ZM1348.27 641.135L1348.19 603.135C1329.65 603.177 1313.84 616.591 1310.79 634.878L1348.27 641.135ZM1580.74 730.246L1614.19 712.22C1606.52 697.976 1590.66 690.155 1574.69 692.731C1558.71 695.308 1546.12 707.717 1543.32 723.652L1580.74 730.246ZM1556.27 869.094V907.094C1574.72 907.094 1590.5 893.852 1593.7 875.689L1556.27 869.094ZM1506.23 869.094L1468.79 862.562C1466.86 873.616 1469.92 884.957 1477.14 893.546C1484.36 902.135 1495 907.094 1506.23 907.094V869.094ZM1546.07 640.737V602.737C1527.61 602.737 1511.81 616.013 1508.64 634.205L1546.07 640.737ZM1584.41 640.737L1617.76 622.522C1611.09 610.324 1598.3 602.737 1584.41 602.737V640.737ZM1659.72 778.628L1626.37 796.843C1634.11 811.025 1649.98 818.758 1665.92 816.117C1681.87 813.477 1694.4 801.043 1697.16 785.12L1659.72 778.628ZM1683.63 640.737V602.737C1665.14 602.737 1649.34 616.034 1646.18 634.245L1683.63 640.737ZM1733.51 640.737L1770.95 647.26C1772.88 636.207 1769.82 624.869 1762.6 616.281C1755.38 607.694 1744.73 602.737 1733.51 602.737V640.737ZM1693.67 869.413V907.413C1712.14 907.413 1727.93 894.132 1731.1 875.936L1693.67 869.413ZM1655.73 869.413L1622.28 887.439C1628.91 899.742 1641.76 907.413 1655.73 907.413V869.413ZM1750.33 869.413L1712.89 862.89C1710.96 874.002 1714.06 885.399 1721.36 894C1728.65 902.6 1739.39 907.514 1750.67 907.412L1750.33 869.413ZM1790.18 640.737V602.737C1771.71 602.737 1755.91 616.018 1752.74 634.213L1790.18 640.737ZM1939.92 640.737L1977.33 647.395C1979.3 636.326 1976.27 624.953 1969.05 616.334C1961.83 607.715 1951.17 602.737 1939.92 602.737V640.737ZM1932.83 680.59V718.59C1951.25 718.59 1967.01 705.381 1970.24 687.248L1932.83 680.59ZM1832.97 680.59V642.59C1814.48 642.59 1798.68 655.898 1795.53 674.118L1832.97 680.59ZM1823.33 736.384L1785.88 729.912C1783.98 740.958 1787.04 752.284 1794.26 760.859C1801.48 769.434 1812.12 774.384 1823.33 774.384V736.384ZM1909.96 736.384L1947.37 743.042C1949.34 731.973 1946.31 720.6 1939.09 711.981C1931.87 703.363 1921.2 698.384 1909.96 698.384V736.384ZM1902.86 776.237V814.237C1921.28 814.237 1937.05 801.029 1940.28 782.895L1902.86 776.237ZM1816.08 776.237V738.237C1797.59 738.237 1781.79 751.537 1778.64 769.749L1816.08 776.237ZM1807.07 828.205L1769.63 821.717C1767.72 832.765 1770.78 844.095 1778 852.674C1785.22 861.253 1795.86 866.205 1807.07 866.205V828.205ZM1906.85 828.205L1944.31 834.573C1946.19 823.539 1943.1 812.241 1935.88 803.69C1928.66 795.139 1918.04 790.205 1906.85 790.205V828.205ZM1900.08 868.058L1900.42 906.057C1918.82 905.89 1934.46 892.566 1937.54 874.426L1900.08 868.058ZM1983.68 796.881L2021.67 796.501C2021.56 785.246 2016.46 774.619 2007.76 767.486C1999.05 760.352 1987.63 757.446 1976.57 759.551L1983.68 796.881ZM2018.74 828.285V790.285C2017.47 790.285 2016.2 790.349 2014.94 790.476L2018.74 828.285ZM2057.07 804.373L2019.69 797.576C2019.61 798.001 2019.54 798.428 2019.48 798.855L2057.07 804.373ZM2035.24 779.903L2048.43 744.266C2048.37 744.244 2048.31 744.221 2048.25 744.199L2035.24 779.903ZM2012.05 771.454L1998.87 807.098C1998.93 807.119 1998.98 807.139 1999.04 807.159L2012.05 771.454ZM1966.62 703.465L2004.05 710.023C2004.07 709.895 2004.09 709.768 2004.12 709.641L1966.62 703.465ZM2120.59 686.807L2136.83 721.161C2152.91 713.56 2161.56 695.828 2157.67 678.479L2120.59 686.807ZM2076.76 707.53L2039.67 715.813C2042.19 727.083 2049.69 736.597 2060.07 741.669C2070.44 746.741 2082.56 746.82 2093 741.884L2076.76 707.53ZM2015.55 702.987L1978.06 696.772C1978.06 696.817 1978.05 696.861 1978.04 696.905L2015.55 702.987ZM2035.56 727.457L2022.46 763.129C2022.48 763.137 2022.5 763.145 2022.53 763.153L2035.56 727.457ZM2057.39 735.427L2044.36 771.124C2044.4 771.136 2044.43 771.149 2044.47 771.161L2057.39 735.427ZM2105.69 803.656L2143.08 810.447C2143.1 810.327 2143.12 810.207 2143.14 810.087L2105.69 803.656ZM1937.61 805.648L1930.51 768.319C1913.73 771.512 1901.15 785.503 1899.74 802.522L1937.61 805.648ZM2175.66 796.881L2213.66 796.501C2213.54 785.248 2208.45 774.623 2199.75 767.489C2191.04 760.356 2179.62 757.448 2168.57 759.549L2175.66 796.881ZM2210.72 828.285V790.285C2209.45 790.285 2208.19 790.349 2206.92 790.476L2210.72 828.285ZM2249.06 804.373L2211.67 797.576C2211.59 798.001 2211.52 798.428 2211.46 798.855L2249.06 804.373ZM2227.14 779.903L2240.29 744.249C2240.25 744.237 2240.22 744.225 2240.19 744.213L2227.14 779.903ZM2204.03 771.454L2190.86 807.098C2190.9 807.114 2190.94 807.129 2190.98 807.144L2204.03 771.454ZM2158.6 703.465L2196.03 710.023C2196.06 709.895 2196.08 709.768 2196.1 709.641L2158.6 703.465ZM2312.57 686.807L2328.79 721.172C2344.88 713.579 2353.55 695.838 2349.65 678.479L2312.57 686.807ZM2268.66 707.53L2231.58 715.813C2234.09 727.079 2241.59 736.59 2251.96 741.663C2262.33 746.737 2274.44 746.822 2284.88 741.895L2268.66 707.53ZM2207.46 702.987L2169.97 696.772C2169.96 696.817 2169.95 696.861 2169.95 696.905L2207.46 702.987ZM2227.38 727.457L2214.24 763.113C2214.29 763.132 2214.34 763.15 2214.39 763.168L2227.38 727.457ZM2249.3 735.427L2236.31 771.139C2236.33 771.146 2236.35 771.154 2236.37 771.161L2249.3 735.427ZM2297.59 803.656L2334.98 810.447C2335 810.327 2335.02 810.207 2335.04 810.087L2297.59 803.656ZM2129.52 805.648L2122.42 768.316C2105.64 771.505 2093.05 785.499 2091.64 802.522L2129.52 805.648ZM933.786 455.261L912.687 423.657C902.853 430.222 896.635 440.991 895.866 452.79C895.097 464.589 899.865 476.074 908.764 483.86L933.786 455.261ZM993.557 641.295L1030.89 648.365C1030.93 648.152 1030.97 647.939 1031.01 647.725L993.557 641.295ZM871.704 826.053L850.505 794.516C850.3 794.654 850.096 794.793 849.894 794.935L871.704 826.053ZM726.74 873V911C726.93 911 727.121 910.999 727.312 910.996L726.74 873ZM118.989 873L81.5361 866.577C79.6426 877.617 82.7166 888.93 89.9368 897.494C97.157 906.058 107.788 911 118.989 911L118.989 873ZM194.46 432.943L157.028 426.399C157.021 426.44 157.014 426.48 157.007 426.52L194.46 432.943ZM884.057 223.715L921.472 230.356C923.436 219.289 920.4 207.92 913.18 199.305C905.96 190.691 895.297 185.715 884.057 185.715V223.715ZM874.493 277.596L837.078 270.955C837.063 271.04 837.048 271.124 837.034 271.209L874.493 277.596ZM829.147 315.855L829.161 277.855H829.147V315.855ZM286.587 432.943L324.04 439.366L324.041 439.362L286.587 432.943ZM258.773 595.145L221.32 588.723C219.427 599.763 222.501 611.076 229.721 619.639C236.942 628.203 247.572 633.145 258.773 633.145V595.145ZM811.455 641.056L849.454 641.304C849.455 641.199 849.455 641.095 849.455 640.99L811.455 641.056ZM810.817 649.026L848.267 655.468C848.304 655.253 848.339 655.037 848.373 654.821L810.817 649.026ZM765.471 687.285V725.285C765.485 725.285 765.499 725.285 765.513 725.285L765.471 687.285ZM282.443 687.285V649.285C282.433 649.285 282.424 649.285 282.415 649.285L282.443 687.285ZM236.3 726.182L198.853 719.72C198.851 719.73 198.85 719.74 198.848 719.75L236.3 726.182ZM226.896 780.94L189.444 774.508C187.548 785.549 190.62 796.864 197.84 805.43C205.061 813.996 215.693 818.94 226.896 818.94V780.94ZM434.819 501.57V463.57C434.797 463.57 434.775 463.57 434.753 463.57L434.819 501.57ZM388.755 455.58L350.755 455.446C350.755 455.491 350.755 455.535 350.755 455.58L388.755 455.58ZM389.393 447.609L351.941 441.178C351.911 441.352 351.882 441.527 351.855 441.701L389.393 447.609ZM434.819 409.271V371.271C434.804 371.271 434.79 371.271 434.776 371.271L434.819 409.271ZM964.787 271.539L927.335 265.111C927.333 265.119 927.332 265.126 927.331 265.133L964.787 271.539ZM989.094 129.901L1026.55 136.328C1028.44 125.288 1025.37 113.973 1018.15 105.409C1010.93 96.8438 1000.3 91.9011 989.094 91.9011V129.901ZM291.289 129.901L263.321 104.176C253.111 115.276 250.432 131.363 256.493 145.173C262.553 158.982 276.208 167.901 291.289 167.901V129.901ZM500.885 38.0001L500.857 76.0001C500.867 76.0001 500.876 76.0001 500.885 76.0001L500.885 38.0001ZM1097 38.0001L1134.46 44.3872C1136.34 33.3515 1133.26 22.0475 1126.04 13.492C1118.82 4.93652 1108.2 7.78669e-05 1097 7.78669e-05V38.0001ZM1057.15 271.698L1094.59 278.228C1094.6 278.181 1094.6 278.133 1094.61 278.085L1057.15 271.698ZM1475.46 181.949L1512.92 188.343C1512.92 188.336 1512.92 188.328 1512.93 188.321L1475.46 181.949ZM1471.96 86.7801L1437.55 102.906C1437.67 103.159 1437.79 103.411 1437.91 103.662L1471.96 86.7801ZM1426.93 47.6444L1415.43 83.8614C1415.54 83.8963 1415.65 83.9307 1415.76 83.9647L1426.93 47.6444ZM1203.39 38V0C1184.86 0 1169.03 13.3661 1165.92 31.635L1203.39 38ZM1117.48 543.655L1080.01 537.29C1078.14 548.323 1081.22 559.621 1088.44 568.171C1095.66 576.722 1106.28 581.655 1117.48 581.655V543.655ZM1375.92 534.568L1363.97 498.498C1363.88 498.526 1363.8 498.555 1363.71 498.584L1375.92 534.568ZM1419.04 500.773L1387.14 480.127C1387.05 480.267 1386.96 480.407 1386.87 480.547L1419.04 500.773ZM1443.59 424.893L1406.12 418.533C1406.12 418.555 1406.11 418.577 1406.11 418.599L1443.59 424.893ZM1451.55 377.946L1489.02 384.306L1489.02 384.295L1451.55 377.946ZM1391.94 270.502L1383.79 233.388C1366.47 237.194 1354.08 252.472 1353.94 270.204C1353.81 287.935 1365.95 303.406 1383.2 307.484L1391.94 270.502ZM1322.93 362.802L1360.4 369.141C1360.42 368.984 1360.45 368.828 1360.47 368.672L1322.93 362.802ZM1314.96 409.908L1277.49 403.569C1277.49 403.592 1277.48 403.615 1277.48 403.638L1314.96 409.908ZM1263.87 457.094L1226.41 450.762C1224.5 462.044 1227.78 473.585 1235.33 482.179C1242.88 490.774 1253.91 495.507 1265.34 495.066L1263.87 457.094ZM1287.78 315.616L1289.03 277.636C1270.02 277.013 1253.48 290.534 1250.31 309.284L1287.78 315.616ZM1354.81 172.623L1317.82 163.899C1317.66 164.592 1317.51 165.289 1317.39 165.99L1354.81 172.623ZM1340.22 227.063L1371.17 249.111C1371.24 249.007 1371.32 248.904 1371.39 248.799L1340.22 227.063ZM1300.77 236.946L1263.31 230.575C1261.36 242.07 1264.79 253.826 1272.62 262.466C1280.45 271.105 1291.81 275.671 1303.44 274.852L1300.77 236.946ZM1319.9 124.481L1318.59 86.5037C1300.56 87.1264 1285.46 100.331 1282.44 118.11L1319.9 124.481ZM1346.68 127.35L1362.3 92.711C1360.27 91.7954 1358.16 91.0601 1356.01 90.5134L1346.68 127.35ZM1356.08 139.386L1393.63 133.521C1393.58 133.214 1393.53 132.907 1393.47 132.601L1356.08 139.386ZM1809.06 81.8383L1775.09 98.8572C1775.17 99.028 1775.26 99.1982 1775.35 99.3677L1809.06 81.8383ZM1761.25 45.1735L1752.91 82.2465C1753.15 82.3007 1753.39 82.3526 1753.63 82.4022L1761.25 45.1735ZM1543.6 38V0C1525.07 0 1509.24 13.3692 1506.14 31.6408L1543.6 38ZM1457.77 543.655L1420.31 537.296C1418.43 548.328 1421.52 559.625 1428.74 568.174C1435.96 576.723 1446.58 581.655 1457.77 581.655V543.655ZM1589.27 543.655V581.655C1607.8 581.655 1623.64 568.281 1626.73 550.005L1589.27 543.655ZM1627.92 315.616V277.616C1609.38 277.616 1593.55 290.99 1590.45 309.266L1627.92 315.616ZM1657.64 375.555L1620.19 369.147C1620.19 369.169 1620.18 369.191 1620.18 369.214L1657.64 375.555ZM1629.19 543.655L1591.73 537.313C1589.86 548.343 1592.95 559.636 1600.17 568.181C1607.39 576.725 1618.01 581.655 1629.19 581.655V543.655ZM1751.21 543.655V581.655C1769.74 581.655 1785.57 568.283 1788.67 550.01L1751.21 543.655ZM1773.84 410.227L1736.39 403.779C1736.39 403.81 1736.38 403.841 1736.37 403.872L1773.84 410.227ZM1783.32 335.463L1821.23 332.803C1821.18 332.091 1821.11 331.381 1821.02 330.673L1783.32 335.463ZM1771.69 305.653L1740.19 326.911C1740.36 327.165 1740.54 327.417 1740.71 327.667L1771.69 305.653ZM1723.87 279.748L1720.36 241.911C1702.04 243.613 1687.57 258.192 1686.01 276.522C1684.45 294.852 1696.24 311.669 1714 316.445L1723.87 279.748ZM1813.85 176.051L1851.31 182.428C1851.31 182.385 1851.32 182.341 1851.33 182.297L1813.85 176.051ZM1693.75 163.537L1731.2 169.975C1731.2 169.941 1731.21 169.907 1731.21 169.874L1693.75 163.537ZM1688.96 191.354L1651.51 184.917C1651.51 184.966 1651.5 185.015 1651.49 185.065L1688.96 191.354ZM1673.03 231.207L1689.46 265.472C1690.79 264.833 1692.08 264.116 1693.33 263.326L1673.03 231.207ZM1641.15 237.265L1603.68 230.92C1601.89 241.483 1604.65 252.31 1611.26 260.735C1617.88 269.161 1627.75 274.402 1638.43 275.168L1641.15 237.265ZM1660.2 124.8V86.7998C1641.66 86.7998 1625.82 100.177 1622.73 118.454L1660.2 124.8ZM2039.06 331.238V369.238C2055.93 369.238 2070.78 358.118 2075.53 341.931L2039.06 331.238ZM2067.27 235.033L2103.74 245.726C2107.11 234.239 2104.87 221.837 2097.69 212.255C2090.52 202.674 2079.25 197.033 2067.27 197.033V235.033ZM1973.24 235.033L1935.77 228.676C1933.9 239.708 1936.98 251.004 1944.2 259.553C1951.42 268.101 1962.05 273.033 1973.24 273.033V235.033ZM1989.49 139.227V101.227C1970.96 101.227 1955.13 114.597 1952.03 132.869L1989.49 139.227ZM2137.01 139.227V177.227C2153.95 177.227 2168.85 166.007 2173.53 149.722L2137.01 139.227ZM2166.1 38L2202.62 48.4949C2205.91 37.0249 2203.63 24.6727 2196.45 15.1396C2189.27 5.60652 2178.03 0 2166.1 0V38ZM1875.21 38V0C1856.68 0 1840.85 13.3687 1837.75 31.6398L1875.21 38ZM1789.38 543.575L1751.92 537.215C1750.04 548.247 1753.13 559.544 1760.35 568.094C1767.57 576.643 1778.19 581.575 1789.38 581.575V543.575ZM2017.31 543.575V581.575C2034.24 581.575 2049.13 570.373 2053.82 554.104L2017.31 543.575ZM2046.47 442.428L2082.99 452.957C2086.3 441.484 2084.02 429.124 2076.84 419.582C2069.66 410.041 2058.41 404.428 2046.47 404.428V442.428ZM1938.01 442.428L1900.55 436.064C1898.67 447.097 1901.76 458.395 1908.98 466.945C1916.2 475.495 1926.82 480.428 1938.01 480.428V442.428ZM1956.9 331.238V293.238C1938.37 293.238 1922.54 306.605 1919.43 324.874L1956.9 331.238ZM2203.79 38V0C2187.04 0 2172.27 10.9668 2167.42 26.9991L2203.79 38ZM2050.86 543.655L2014.48 532.654C2011 544.166 2013.18 556.647 2020.34 566.304C2027.51 575.961 2038.83 581.655 2050.86 581.655V543.655ZM2186.82 543.655V581.655C2204.17 581.655 2219.32 569.895 2223.63 553.082L2186.82 543.655ZM2210.17 452.471V414.471C2192.81 414.471 2177.66 426.231 2173.35 443.044L2210.17 452.471ZM2257.11 452.471L2294.96 455.788C2295.89 445.174 2292.32 434.657 2285.13 426.801C2277.93 418.944 2267.76 414.471 2257.11 414.471V452.471ZM2249.14 543.416L2211.28 540.098C2210.35 550.713 2213.92 561.23 2221.12 569.086C2228.32 576.942 2238.48 581.416 2249.14 581.416V543.416ZM2382.86 543.416V581.416C2403.53 581.416 2420.41 564.899 2420.86 544.236L2382.86 543.416ZM2393.78 38L2431.77 38.8207C2431.99 28.6026 2428.09 18.7263 2420.94 11.4217C2413.79 4.11707 2404 0 2393.78 0V38ZM2268.9 363.041V401.041C2289.1 401.041 2305.76 385.247 2306.85 365.082L2268.9 363.041ZM2223.48 363.041L2186.6 353.878C2183.78 365.224 2186.34 377.238 2193.54 386.448C2200.74 395.659 2211.78 401.041 2223.48 401.041V363.041ZM2284.76 150.784L2322.61 154.151C2324.33 134.778 2311.15 117.231 2292.07 113.493C2272.98 109.754 2254.15 121.03 2248.44 139.621L2284.76 150.784ZM4126.26 38V0C4110.58 0 4096.51 9.63268 4090.84 24.2518L4126.26 38ZM4055.81 237.265L4017.99 233.554C4016.09 253.004 4029.24 270.73 4048.41 274.537C4067.58 278.344 4086.51 266.991 4092.18 248.288L4055.81 237.265ZM4057.65 38L4095.64 37.1822C4095.19 16.5189 4078.31 0 4057.65 0V38ZM3936.91 38V0C3926.06 0 3915.73 4.63496 3908.52 12.7374C3901.31 20.8399 3897.91 31.6376 3899.16 42.4107L3936.91 38ZM3974.6 360.57L4012.08 366.844C4012.67 363.313 4012.76 359.716 4012.35 356.159L3974.6 360.57ZM3971.73 377.707L3934.26 371.433C3932.26 383.353 3936.05 395.512 3944.48 404.182C3952.9 412.853 3964.94 417 3976.91 415.352L3971.73 377.707ZM4096.3 360.57L4101.48 398.216C4114.25 396.458 4125.27 388.34 4130.72 376.655L4096.3 360.57ZM4247 38L4281.43 54.0849C4286.93 42.3156 4286.04 28.553 4279.06 17.5944C4272.08 6.63586 4259.99 0 4247 0V38ZM3717.83 38V0C3701.08 0 3686.31 10.9641 3681.46 26.9937L3717.83 38ZM3599.64 428.559L3563.27 417.553C3559.52 429.944 3562.34 443.392 3570.74 453.237C3579.15 463.082 3591.99 467.969 3604.82 466.205L3599.64 428.559ZM3900.41 387.192L3905.59 424.838C3924.09 422.292 3938 406.674 3938.4 387.998L3900.41 387.192ZM3907.82 38L3945.81 38.8064C3946.03 28.5906 3942.12 18.7181 3934.97 11.4166C3927.82 4.11507 3918.04 0 3907.82 0V38ZM3782.94 363.041V401.041C3803.13 401.041 3819.8 385.247 3820.88 365.082L3782.94 363.041ZM3737.67 363.041L3700.76 354.002C3697.99 365.336 3700.57 377.318 3707.78 386.498C3714.98 395.679 3726 401.041 3737.67 401.041V363.041ZM3798.96 150.784L3836.8 154.198C3838.55 134.829 3825.39 117.267 3806.31 113.503C3787.23 109.738 3768.39 120.986 3762.65 139.567L3798.96 150.784ZM3546.4 38V0C3529.86 0 3515.21 10.7098 3510.19 26.4798L3546.4 38ZM3448.54 397.155L3410.71 393.581C3408.83 413.515 3422.73 431.49 3442.5 434.672C3462.27 437.855 3481.11 425.153 3485.58 405.635L3448.54 397.155ZM3466.71 204.825L3504.54 208.399C3504.55 208.333 3504.55 208.268 3504.56 208.202L3466.71 204.825ZM3480.58 38L3518.54 39.6386C3518.99 29.2857 3515.19 19.1994 3508.02 11.7156C3500.85 4.23192 3490.94 0 3480.58 0V38ZM3344.14 38V0C3327.44 0 3312.69 10.9073 3307.8 26.8793L3344.14 38ZM3248.91 384.96L3211.06 381.535C3209.25 401.486 3223.25 419.412 3243.04 422.505C3262.83 425.597 3281.63 412.793 3285.99 393.243L3248.91 384.96ZM3280.3 38L3318.15 41.425C3319.11 30.7946 3315.56 20.2497 3308.36 12.3694C3301.16 4.48912 3290.98 0 3280.3 0V38ZM3152.79 38V0C3132.59 0 3115.92 15.8037 3114.85 35.9748L3152.79 38ZM3128.49 493.44L3090.54 491.415C3089.94 502.724 3094.41 513.714 3102.74 521.388C3111.07 529.062 3122.39 532.62 3133.61 531.093L3128.49 493.44ZM3312.42 468.412L3317.55 506.065C3332.17 504.075 3344.32 493.798 3348.7 479.706L3312.42 468.412ZM3370.6 278.712L3408.54 280.743C3409.57 261.49 3396.02 244.516 3377.02 241.258C3358.02 238.001 3339.58 249.491 3334.14 267.988L3370.6 278.712ZM3364.7 461.239L3326.7 460.951C3326.62 471.982 3331.33 482.504 3339.62 489.785C3347.91 497.066 3358.95 500.387 3369.87 498.885L3364.7 461.239ZM3560.75 434.298L3565.92 471.944C3580.85 469.893 3593.15 459.219 3597.29 444.732L3560.75 434.298ZM3673.92 38L3710.46 48.4342C3713.73 36.9694 3711.43 24.6327 3704.25 15.1144C3697.07 5.59613 3685.84 0 3673.92 0V38ZM2915.7 38V0C2898.95 0 2884.18 10.9686 2879.33 27.0028L2915.7 38ZM2762.85 543.575L2726.47 532.578C2722.99 544.09 2725.17 556.569 2732.34 566.226C2739.51 575.882 2750.82 581.575 2762.85 581.575V543.575ZM2903.67 524.207L2908.85 561.852C2924.14 559.749 2936.64 548.604 2940.48 533.652L2903.67 524.207ZM2922.08 452.471V414.471C2904.73 414.471 2889.58 426.221 2885.27 443.025L2922.08 452.471ZM2969.1 452.471L3006.94 455.924C3007.91 445.289 3004.36 434.737 2997.16 426.851C2989.96 418.964 2979.78 414.471 2969.1 414.471V452.471ZM2963.28 516.236L2925.44 512.783C2924.38 524.321 2928.65 535.709 2937.03 543.712C2945.41 551.715 2956.98 555.46 2968.46 553.882L2963.28 516.236ZM3096.05 497.983L3101.23 535.629C3119.74 533.084 3133.65 517.46 3134.04 498.78L3096.05 497.983ZM3105.69 38L3143.69 38.7965C3143.9 28.5824 3139.99 18.7124 3132.84 11.413C3125.7 4.11369 3115.91 0 3105.69 0V38ZM2980.57 363.041V401.041C3000.73 401.041 3017.37 385.308 3018.51 365.188L2980.57 363.041ZM2935.31 363.041L2898.41 353.96C2895.62 365.299 2898.2 377.291 2905.4 386.482C2912.6 395.672 2923.63 401.041 2935.31 401.041V363.041ZM2996.59 150.784L3034.44 154.127C3036.15 134.765 3022.98 117.234 3003.9 113.494C2984.83 109.754 2966.01 121.011 2960.28 139.585L2996.59 150.784ZM2817.36 38L2851.35 54.9921C2857.24 43.2126 2856.61 29.2238 2849.68 18.0213C2842.76 6.81878 2830.53 0 2817.36 0V38ZM2694.07 38V0C2679.32 0 2665.9 8.53598 2659.65 21.8963L2694.07 38ZM2602.18 234.396L2564.72 228.041C2561.54 246.786 2572.7 264.997 2590.85 270.667C2609 276.337 2628.55 267.721 2636.6 250.499L2602.18 234.396ZM2635.5 38L2672.96 44.3548C2674.83 33.3231 2671.75 22.0274 2664.53 13.4794C2657.31 4.9314 2646.69 0 2635.5 0V38ZM2504.08 38V0C2485.55 0 2469.72 13.3687 2466.62 31.6398L2504.08 38ZM2418.25 543.575L2380.79 537.215C2378.91 548.247 2382 559.544 2389.22 568.094C2396.44 576.643 2407.06 581.575 2418.25 581.575V543.575ZM2549.67 543.575V581.575C2568.2 581.575 2584.02 568.209 2587.13 549.94L2549.67 543.575ZM2586.48 326.855L2624.38 323.984C2622.93 304.84 2607.42 289.785 2588.24 288.895C2569.07 288.006 2552.24 301.562 2549.02 320.49L2586.48 326.855ZM2602.9 543.575L2565.01 546.445C2566.51 566.262 2583.03 581.575 2602.9 581.575V543.575ZM2738.78 543.575V581.575C2749.7 581.575 2760.09 576.877 2767.31 568.679C2774.52 560.481 2777.86 549.575 2776.47 538.744L2738.78 543.575ZM2703.24 266.278L2669.25 249.286C2665.88 256.032 2664.59 263.629 2665.55 271.109L2703.24 266.278ZM3965.52 413.973L3961.89 376.147C3944.8 377.787 3930.93 390.686 3928.05 407.615L3965.52 413.973ZM3943.52 543.575L3906.06 537.217C3904.19 548.249 3907.27 559.545 3914.49 568.094C3921.71 576.643 3932.33 581.575 3943.52 581.575V543.575ZM4065.3 543.575V581.575C4083.83 581.575 4099.66 568.202 4102.76 549.927L4065.3 543.575ZM4089.28 402.097L4126.75 408.449C4128.73 396.79 4125.16 384.874 4117.11 376.216C4109.05 367.557 4097.43 363.141 4085.65 364.271L4089.28 402.097ZM3772.34 432.385L3768.74 394.556C3750.47 396.293 3736.05 410.842 3734.48 429.129L3772.34 432.385ZM3762.78 543.575L3724.91 540.319C3724 550.924 3727.58 561.425 3734.78 569.268C3741.97 577.111 3752.13 581.575 3762.78 581.575V543.575ZM3897.14 543.575V581.575C3917.81 581.575 3934.69 565.052 3935.13 544.385L3897.14 543.575ZM3899.77 420.27L3937.76 421.08C3937.99 410.238 3933.58 399.813 3925.64 392.431C3917.69 385.049 3906.97 381.414 3896.17 382.44L3899.77 420.27ZM3593.42 449.522L3589.8 411.695C3574.45 413.165 3561.52 423.762 3557.05 438.519L3593.42 449.522ZM3564.97 543.575L3528.6 532.573C3525.12 544.085 3527.29 556.566 3534.46 566.223C3541.63 575.881 3552.95 581.575 3564.97 581.575V543.575ZM3700.85 543.575V581.575C3718.21 581.575 3733.35 569.819 3737.66 553.009L3700.85 543.575ZM3728.27 436.61L3765.08 446.044C3768.15 434.052 3765.19 421.314 3757.14 411.907C3749.09 402.5 3736.97 397.603 3724.65 398.783L3728.27 436.61ZM3364.7 471.361L3361.1 433.533C3341.59 435.392 3326.7 451.772 3326.7 471.361H3364.7ZM3365.42 543.575L3327.44 544.754C3328.07 565.272 3344.89 581.575 3365.42 581.575V543.575ZM3529.43 543.575V581.575C3546.39 581.575 3561.29 570.342 3565.96 554.043L3529.43 543.575ZM3555.33 453.188L3591.86 463.656C3595.32 451.576 3592.59 438.566 3584.56 428.901C3576.52 419.236 3564.23 414.167 3551.72 415.36L3555.33 453.188ZM3128.33 493.998L3124.71 456.171C3105.95 457.967 3091.35 473.232 3090.38 492.046L3128.33 493.998ZM3125.78 543.575L3087.83 541.623C3087.29 552.026 3091.05 562.193 3098.23 569.746C3105.4 577.299 3115.36 581.575 3125.78 581.575V543.575ZM3288.83 543.575V581.575C3305.45 581.575 3320.13 570.783 3325.1 554.928L3288.83 543.575ZM3309.79 476.622L3346.06 487.975C3349.86 475.823 3347.33 462.575 3339.31 452.685C3331.28 442.796 3318.84 437.581 3306.17 438.795L3309.79 476.622ZM2903.67 524.286L2940.48 533.716C2943.62 521.459 2940.45 508.444 2932.03 499C2923.61 489.555 2911.05 484.921 2898.51 486.638L2903.67 524.286ZM2898.73 543.575V581.575C2916.08 581.575 2931.23 569.817 2935.54 553.004L2898.73 543.575ZM3096.05 497.904L3134.04 498.699C3134.28 487.582 3129.63 476.92 3121.32 469.525C3113.02 462.13 3101.89 458.743 3090.88 460.258L3096.05 497.904ZM3095.09 543.575V581.575C3115.77 581.575 3132.65 565.043 3133.09 544.371L3095.09 543.575ZM2960.73 543.575L2922.89 540.056C2921.9 550.7 2925.44 561.269 2932.64 569.171C2939.84 577.072 2950.04 581.575 2960.73 581.575V543.575ZM2963.28 516.156L2958.1 478.51C2940.61 480.915 2927.08 495.055 2925.44 512.637L2963.28 516.156ZM1049.74 869.413L1087.17 875.936L1127.02 647.26L1089.58 640.737L1052.15 634.213L1012.3 862.89L1049.74 869.413ZM1089.58 640.737V678.737H1239.33V640.737V602.737H1089.58V640.737ZM1239.33 640.737L1201.92 634.078L1194.82 673.931L1232.24 680.59L1269.65 687.248L1276.74 647.395L1239.33 640.737ZM1232.24 680.59V642.59H1132.14V680.59V718.59H1232.24V680.59ZM1132.14 680.59L1094.69 674.118L1085.05 729.912L1122.5 736.384L1159.94 742.855L1169.58 687.061L1132.14 680.59ZM1122.5 736.384V774.384H1209.12V736.384V698.384H1122.5V736.384ZM1209.12 736.384L1171.71 729.725L1164.62 769.579L1202.03 776.237L1239.44 782.895L1246.54 743.042L1209.12 736.384ZM1202.03 776.237V738.237H1115.72V776.237V814.237H1202.03V776.237ZM1115.72 776.237L1078.28 769.76L1062.34 861.9L1099.78 868.377L1137.23 874.854L1153.17 782.714L1115.72 776.237ZM1099.78 868.377L1099 830.385L1048.95 831.421L1049.74 869.413L1050.52 907.405L1100.57 906.369L1099.78 868.377ZM1286.75 869.413V831.413H1236.86V869.413V907.413H1286.75V869.413ZM1236.86 869.413L1274.29 875.936L1314.14 647.26L1276.71 640.737L1239.27 634.213L1199.42 862.89L1236.86 869.413ZM1276.71 640.737V678.737H1326.59V640.737V602.737H1276.71V640.737ZM1326.59 640.737L1289.16 634.213L1249.31 862.89L1286.75 869.413L1324.18 875.936L1364.03 647.26L1326.59 640.737ZM1525.35 640.737L1487.86 634.535L1480.77 677.417L1518.26 683.618L1555.75 689.82L1562.84 646.938L1525.35 640.737ZM1518.26 683.618V645.618H1454.5V683.618V721.618H1518.26V683.618ZM1454.5 683.618L1417.07 677.081L1384.55 863.275L1421.99 869.812L1459.42 876.349L1491.94 690.156L1454.5 683.618ZM1421.99 869.812V831.812H1372.74V869.812V907.812H1421.99V869.812ZM1372.74 869.812L1410.18 876.287L1442.38 690.093L1404.93 683.618L1367.49 677.144L1335.29 863.337L1372.74 869.812ZM1404.93 683.618V645.618H1341.18V683.618V721.618H1404.93V683.618ZM1341.18 683.618L1378.66 689.876L1385.75 647.393L1348.27 641.135L1310.79 634.878L1303.7 677.361L1341.18 683.618ZM1348.27 641.135L1348.36 679.135L1525.44 678.737L1525.35 640.737L1525.27 602.737L1348.19 603.135L1348.27 641.135ZM1580.74 730.246L1543.32 723.652L1518.85 862.5L1556.27 869.094L1593.7 875.689L1618.16 736.841L1580.74 730.246ZM1556.27 869.094V831.094H1506.23V869.094V907.094H1556.27V869.094ZM1506.23 869.094L1543.66 875.626L1583.51 647.269L1546.07 640.737L1508.64 634.205L1468.79 862.562L1506.23 869.094ZM1546.07 640.737V678.737H1584.41V640.737V602.737H1546.07V640.737ZM1584.41 640.737L1551.06 658.951L1626.37 796.843L1659.72 778.628L1693.07 760.413L1617.76 622.522L1584.41 640.737ZM1659.72 778.628L1697.16 785.12L1721.07 647.229L1683.63 640.737L1646.18 634.245L1622.28 772.136L1659.72 778.628ZM1683.63 640.737V678.737H1733.51V640.737V602.737H1683.63V640.737ZM1733.51 640.737L1696.08 634.213L1656.23 862.89L1693.67 869.413L1731.1 875.936L1770.95 647.26L1733.51 640.737ZM1693.67 869.413V831.413H1655.73V869.413V907.413H1693.67V869.413ZM1655.73 869.413L1689.18 851.387L1614.19 712.22L1580.74 730.246L1547.29 748.273L1622.28 887.439L1655.73 869.413ZM1750.33 869.413L1787.77 875.936L1827.61 647.26L1790.18 640.737L1752.74 634.213L1712.89 862.89L1750.33 869.413ZM1790.18 640.737V678.737H1939.92V640.737V602.737H1790.18V640.737ZM1939.92 640.737L1902.51 634.078L1895.42 673.931L1932.83 680.59L1970.24 687.248L1977.33 647.395L1939.92 640.737ZM1932.83 680.59V642.59H1832.97V680.59V718.59H1932.83V680.59ZM1832.97 680.59L1795.53 674.118L1785.88 729.912L1823.33 736.384L1860.77 742.856L1870.42 687.061L1832.97 680.59ZM1823.33 736.384V774.384H1909.96V736.384V698.384H1823.33V736.384ZM1909.96 736.384L1872.55 729.725L1865.45 769.579L1902.86 776.237L1940.28 782.895L1947.37 743.042L1909.96 736.384ZM1902.86 776.237V738.237H1816.08V776.237V814.237H1902.86V776.237ZM1816.08 776.237L1778.64 769.749L1769.63 821.717L1807.07 828.205L1844.51 834.693L1853.52 782.725L1816.08 776.237ZM1807.07 828.205V866.205H1906.85V828.205V790.205H1807.07V828.205ZM1906.85 828.205L1869.39 821.838L1862.61 861.691L1900.08 868.058L1937.54 874.426L1944.31 834.573L1906.85 828.205ZM1900.08 868.058L1899.73 830.06L1749.99 831.415L1750.33 869.413L1750.67 907.412L1900.42 906.057L1900.08 868.058ZM1983.68 796.881L1945.68 797.26C1945.77 806.966 1947.89 816.546 1951.9 825.39L1986.51 809.715L2021.13 794.041C2021.48 794.815 2021.66 795.653 2021.67 796.501L1983.68 796.881ZM1986.51 809.715L1951.9 825.39C1955.9 834.233 1961.7 842.145 1968.93 848.621L1994.29 820.314L2019.64 792.007C2020.27 792.574 2020.78 793.266 2021.13 794.041L1986.51 809.715ZM1994.29 820.314L1968.93 848.621C1976.17 855.098 1984.67 859.996 1993.9 863.005L2005.67 826.876L2017.45 790.746C2018.26 791.01 2019 791.44 2019.64 792.007L1994.29 820.314ZM2005.67 826.876L1993.9 863.005C2003.13 866.014 2012.88 867.066 2022.54 866.094L2018.74 828.285L2014.94 790.476C2015.79 790.39 2016.64 790.483 2017.45 790.746L2005.67 826.876ZM2018.74 828.285V866.285C2031.51 866.285 2047.19 863.999 2061.48 856.318C2076.88 848.046 2091.31 832.821 2094.67 809.891L2057.07 804.373L2019.48 798.855C2019.78 796.789 2020.72 794.379 2022.34 792.278C2023.82 790.348 2025.21 789.534 2025.51 789.371C2025.77 789.233 2025.32 789.51 2023.93 789.803C2022.58 790.086 2020.8 790.285 2018.74 790.285V828.285ZM2057.07 804.373L2094.46 811.17C2096.6 799.396 2095.87 783.392 2084.51 768.557C2074.93 756.044 2061.09 748.953 2048.43 744.266L2035.24 779.903L2022.05 815.541C2025.41 816.786 2026.89 817.637 2027.2 817.832C2027.49 818.013 2026 817.145 2024.17 814.763C2022.16 812.129 2020.53 808.676 2019.81 804.798C2019.15 801.202 2019.51 798.543 2019.69 797.576L2057.07 804.373ZM2035.24 779.903L2048.25 744.199L2025.05 735.75L2012.05 771.454L1999.04 807.159L2022.23 815.608L2035.24 779.903ZM2012.05 771.454L2025.22 735.81C2009.13 729.864 2005.69 723.525 2004.85 721.74C2003.54 718.954 2003.16 715.081 2004.05 710.023L1966.62 703.465L1929.19 696.908C1926.81 710.5 1925.64 731.934 1936.1 754.136C1947.03 777.339 1967.95 795.669 1998.87 807.098L2012.05 771.454ZM1966.62 703.465L2004.12 709.641C2007.16 691.171 2024.57 674.831 2054.28 674.831V636.831V598.831C1996.81 598.831 1939.63 633.503 1929.13 697.29L1966.62 703.465ZM2054.28 636.831V674.831C2065.56 674.831 2071.79 677.551 2075.08 679.988C2078.04 682.182 2081.51 686.231 2083.51 695.134L2120.59 686.807L2157.67 678.479C2152.25 654.385 2139.94 633.446 2120.3 618.901C2100.97 604.6 2077.75 598.831 2054.28 598.831V636.831ZM2120.59 686.807L2104.35 652.453L2060.52 673.176L2076.76 707.53L2093 741.884L2136.83 721.161L2120.59 686.807ZM2076.76 707.53L2113.84 699.248C2109.31 678.962 2098.59 663.143 2082.92 653.53C2068.56 644.721 2054.17 643.706 2046.47 643.706V681.706V719.706C2046.94 719.706 2046.84 719.746 2046.35 719.644C2045.83 719.532 2044.63 719.201 2043.18 718.31C2041.61 717.345 2040.39 716.12 2039.65 715.033C2038.98 714.033 2039.26 713.976 2039.67 715.813L2076.76 707.53ZM2046.47 681.706V643.706C2034.52 643.706 2019.68 645.893 2006.15 654.283C1991.26 663.512 1981.11 678.391 1978.06 696.772L2015.55 702.987L2053.04 709.202C2052.88 710.175 2052.35 712.084 2050.91 714.248C2049.46 716.417 2047.7 717.941 2046.2 718.873C2044.8 719.738 2043.93 719.917 2044.06 719.887C2044.19 719.856 2044.96 719.706 2046.47 719.706V681.706ZM2015.55 702.987L1978.04 696.905C1977.05 703.015 1975.38 717.528 1984.04 733.04C1992.51 748.185 2006.91 757.42 2022.46 763.129L2035.56 727.457L2048.65 691.784C2042.93 689.682 2046.85 689.632 2050.39 695.97C2052.11 699.049 2052.91 702.241 2053.14 704.954C2053.36 707.425 2053.05 709.121 2053.06 709.069L2015.55 702.987ZM2035.56 727.457L2022.53 763.153L2044.36 771.124L2057.39 735.427L2070.42 699.731L2048.59 691.76L2035.56 727.457ZM2057.39 735.427L2044.47 771.161C2061.96 777.489 2066.24 784.108 2067.28 786.064C2068.55 788.458 2069.16 791.864 2068.24 797.224L2105.69 803.656L2143.14 810.087C2145.8 794.565 2146.17 772.505 2134.35 750.329C2122.31 727.715 2100.64 710.662 2070.32 699.693L2057.39 735.427ZM2105.69 803.656L2068.3 796.864C2064.13 819.843 2042.12 834.92 2012.68 834.92V872.92V910.92C2063.1 910.92 2129.88 883.115 2143.08 810.447L2105.69 803.656ZM2012.68 872.92V834.92C1998.05 834.92 1987.63 830.633 1982.04 825.99C1977.55 822.257 1974.77 817.432 1975.48 808.774L1937.61 805.648L1899.74 802.522C1896.95 836.348 1910.27 865.159 1933.47 884.441C1955.57 902.813 1984.44 910.92 2012.68 910.92V872.92ZM1937.61 805.648L1944.72 842.978L1990.78 834.21L1983.68 796.881L1976.57 759.551L1930.51 768.319L1937.61 805.648ZM2175.66 796.881L2137.66 797.26C2137.76 806.966 2139.88 816.546 2143.88 825.39L2178.5 809.715L2213.11 794.041C2213.46 794.815 2213.65 795.653 2213.66 796.501L2175.66 796.881ZM2178.5 809.715L2143.88 825.39C2147.88 834.232 2153.69 842.144 2160.92 848.621L2186.27 820.314L2211.62 792.007C2212.26 792.574 2212.76 793.267 2213.11 794.041L2178.5 809.715ZM2186.27 820.314L2160.92 848.621C2168.15 855.098 2176.65 859.996 2185.88 863.005L2197.66 826.876L2209.43 790.746C2210.24 791.01 2210.99 791.44 2211.62 792.007L2186.27 820.314ZM2197.66 826.876L2185.88 863.005C2195.11 866.014 2204.87 867.066 2214.53 866.094L2210.72 828.285L2206.92 790.476C2207.77 790.39 2208.62 790.483 2209.43 790.746L2197.66 826.876ZM2210.72 828.285V866.285C2223.5 866.285 2239.17 863.999 2253.47 856.318C2268.86 848.046 2283.29 832.821 2286.65 809.891L2249.06 804.373L2211.46 798.855C2211.76 796.789 2212.71 794.379 2214.32 792.278C2215.8 790.348 2217.19 789.534 2217.49 789.371C2217.75 789.233 2217.31 789.51 2215.91 789.803C2214.56 790.086 2212.78 790.285 2210.72 790.285V828.285ZM2249.06 804.373L2286.44 811.17C2288.59 799.388 2287.86 783.358 2276.45 768.511C2266.85 756.004 2252.97 748.927 2240.29 744.249L2227.14 779.903L2214 815.557C2217.39 816.807 2218.88 817.663 2219.2 817.865C2219.5 818.053 2218.01 817.191 2216.18 814.809C2214.16 812.174 2212.52 808.713 2211.8 804.819C2211.13 801.21 2211.49 798.543 2211.67 797.576L2249.06 804.373ZM2227.14 779.903L2240.19 744.213L2217.08 735.765L2204.03 771.454L2190.98 807.144L2214.09 815.593L2227.14 779.903ZM2204.03 771.454L2217.2 735.81C2201.11 729.864 2197.68 723.525 2196.83 721.74C2195.52 718.954 2195.15 715.081 2196.03 710.023L2158.6 703.465L2121.17 696.908C2118.79 710.5 2117.62 731.934 2128.08 754.136C2139.02 777.339 2159.93 795.669 2190.86 807.098L2204.03 771.454ZM2158.6 703.465L2196.1 709.641C2199.14 691.171 2216.55 674.831 2246.27 674.831V636.831V598.831C2188.8 598.831 2131.62 633.503 2121.11 697.29L2158.6 703.465ZM2246.27 636.831V674.831C2257.55 674.831 2263.77 677.551 2267.06 679.988C2270.03 682.182 2273.5 686.231 2275.5 695.134L2312.57 686.807L2349.65 678.479C2344.24 654.385 2331.93 633.446 2312.28 618.901C2292.96 604.6 2269.74 598.831 2246.27 598.831V636.831ZM2312.57 686.807L2296.36 652.442L2252.44 673.165L2268.66 707.53L2284.88 741.895L2328.79 721.172L2312.57 686.807ZM2268.66 707.53L2305.75 699.248C2301.22 678.962 2290.5 663.143 2274.83 653.53C2260.47 644.721 2246.08 643.706 2238.38 643.706V681.706V719.706C2238.84 719.706 2238.74 719.746 2238.26 719.644C2237.73 719.532 2236.54 719.201 2235.08 718.31C2233.51 717.345 2232.3 716.121 2231.56 715.033C2230.88 714.034 2231.17 713.976 2231.58 715.813L2268.66 707.53ZM2238.38 681.706V643.706C2226.43 643.706 2211.58 645.893 2198.05 654.283C2183.17 663.512 2173.02 678.391 2169.97 696.772L2207.46 702.987L2244.95 709.202C2244.78 710.175 2244.25 712.084 2242.81 714.248C2241.36 716.417 2239.61 717.941 2238.1 718.873C2236.71 719.738 2235.83 719.917 2235.96 719.887C2236.09 719.856 2236.86 719.706 2238.38 719.706V681.706ZM2207.46 702.987L2169.95 696.905C2168.96 703.008 2167.29 717.491 2175.91 732.982C2184.34 748.13 2198.7 757.388 2214.24 763.113L2227.38 727.457L2240.52 691.8C2234.86 689.714 2238.79 689.686 2242.32 696.027C2244.03 699.101 2244.82 702.281 2245.05 704.977C2245.26 707.435 2244.96 709.12 2244.97 709.069L2207.46 702.987ZM2227.38 727.457L2214.39 763.168L2236.31 771.139L2249.3 735.427L2262.28 699.716L2240.37 691.745L2227.38 727.457ZM2249.3 735.427L2236.37 771.161C2253.86 777.489 2258.14 784.108 2259.18 786.064C2260.46 788.458 2261.06 791.864 2260.14 797.224L2297.59 803.656L2335.04 810.087C2337.71 794.565 2338.07 772.505 2326.26 750.329C2314.21 727.715 2292.55 710.662 2262.22 699.693L2249.3 735.427ZM2297.59 803.656L2260.2 796.864C2256.03 819.843 2234.02 834.92 2204.59 834.92V872.92V910.92C2255.01 910.92 2321.78 883.115 2334.98 810.447L2297.59 803.656ZM2204.59 872.92V834.92C2189.96 834.92 2179.53 830.633 2173.95 825.99C2169.45 822.256 2166.67 817.431 2167.39 808.774L2129.52 805.648L2091.64 802.522C2088.85 836.349 2102.17 865.16 2125.37 884.441C2147.48 902.813 2176.35 910.92 2204.59 910.92V872.92ZM2129.52 805.648L2136.61 842.98L2182.75 834.213L2175.66 796.881L2168.57 759.549L2122.42 768.316L2129.52 805.648ZM933.786 455.261L908.764 483.86C946.306 516.706 967.138 570.605 956.105 634.864L993.557 641.295L1031.01 647.725C1046.12 559.746 1018.02 478.464 958.808 426.662L933.786 455.261ZM993.557 641.295L956.22 634.225C950.087 666.613 937.584 697.46 919.437 724.976L951.159 745.897L982.881 766.819C1006.57 730.902 1022.89 690.639 1030.89 648.365L993.557 641.295ZM951.159 745.897L919.437 724.976C901.289 752.492 877.858 776.129 850.505 794.516L871.704 826.053L892.903 857.59C928.609 833.589 959.193 802.735 982.881 766.819L951.159 745.897ZM871.704 826.053L849.894 794.935C813.592 820.378 770.49 834.337 726.167 835.004L726.74 873L727.312 910.996C786.851 910.099 844.75 891.348 893.514 857.171L871.704 826.053ZM726.74 873V835H118.989V873V911H726.74V873ZM118.989 873L156.442 879.423L231.913 439.367L194.46 432.943L157.007 426.52L81.5361 866.577L118.989 873ZM194.46 432.943L231.892 439.487C248.973 341.783 343.144 261.715 439.521 261.715V223.715V185.715C305.102 185.715 180.273 293.434 157.028 426.399L194.46 432.943ZM439.521 223.715V261.715H884.057V223.715V185.715H439.521V223.715ZM884.057 223.715L846.641 217.074L837.078 270.955L874.493 277.596L911.908 284.237L921.472 230.356L884.057 223.715ZM874.493 277.596L837.034 271.209C836.717 273.07 835.751 274.758 834.31 275.974L858.814 305.018L883.319 334.061C898.476 321.273 908.619 303.533 911.953 283.984L874.493 277.596ZM858.814 305.018L834.31 275.974C832.869 277.19 831.045 277.856 829.161 277.855L829.147 315.855L829.133 353.855C848.966 353.862 868.161 346.85 883.319 334.061L858.814 305.018ZM829.147 315.855V277.855H423.741V315.855V353.855H829.147V315.855ZM423.741 315.855V277.855C340.198 277.855 263.269 344.037 249.133 426.525L286.587 432.943L324.041 439.362C332.06 392.566 378.02 353.855 423.741 353.855V315.855ZM258.773 595.145V633.145H765.471V595.145V557.145H258.773V595.145ZM765.471 595.145V633.145C767.584 633.145 769.612 633.984 771.11 635.478L797.958 608.587L824.807 581.696C809.062 565.975 787.721 557.145 765.471 557.145V595.145ZM797.958 608.587L771.11 635.478C772.607 636.973 773.451 639.003 773.455 641.121L811.455 641.056L849.455 640.99C849.416 618.741 840.552 597.416 824.807 581.696L797.958 608.587ZM811.455 641.056L773.456 640.807C773.45 641.619 773.386 642.429 773.262 643.231L810.817 649.026L848.373 654.821C849.063 650.348 849.424 645.83 849.454 641.304L811.455 641.056ZM810.817 649.026L773.367 642.584C773.045 644.46 772.07 646.16 770.618 647.385L795.122 676.429L819.627 705.473C834.767 692.699 844.909 674.989 848.267 655.468L810.817 649.026ZM795.122 676.429L770.618 647.385C769.166 648.611 767.328 649.283 765.43 649.285L765.471 687.285L765.513 725.285C785.322 725.263 804.487 718.246 819.627 705.473L795.122 676.429ZM765.471 687.285V649.285H282.443V687.285V725.285H765.471V687.285ZM282.443 687.285L282.415 649.285C262.42 649.3 243.073 656.375 227.786 669.261L252.278 698.316L276.769 727.37C278.366 726.025 280.385 725.287 282.471 725.285L282.443 687.285ZM252.278 698.316L227.786 669.261C212.499 682.148 202.253 700.018 198.853 719.72L236.3 726.182L273.746 732.643C274.102 730.583 275.173 728.716 276.769 727.37L252.278 698.316ZM236.3 726.182L198.848 719.75L189.444 774.508L226.896 780.94L264.347 787.371L273.751 732.613L236.3 726.182ZM226.896 780.94V818.94H742.519V780.94V742.94H226.896V780.94ZM742.519 780.94V818.94C836.786 818.94 922.847 741.616 938.888 647.692L901.43 641.295L863.972 634.898C853.714 694.966 797.121 742.94 742.519 742.94V780.94ZM901.43 641.295L938.888 647.692C955.602 549.822 890.702 463.57 790.416 463.57V501.57V539.57C838.998 539.57 873.557 578.775 863.972 634.898L901.43 641.295ZM790.416 501.57V463.57H434.819V501.57V539.57H790.416V501.57ZM434.819 501.57L434.753 463.57C433.704 463.572 432.665 463.367 431.695 462.967L417.197 498.092L402.699 533.218C412.905 537.431 423.843 539.589 434.885 539.57L434.819 501.57ZM417.197 498.092L431.695 462.967C430.725 462.566 429.844 461.979 429.1 461.237L402.252 488.128L375.403 515.019C383.217 522.821 392.492 529.005 402.699 533.218L417.197 498.092ZM402.252 488.128L429.1 461.237C428.357 460.495 427.767 459.613 427.365 458.643L392.263 473.198L357.161 487.753C361.391 497.953 367.589 507.218 375.403 515.019L402.252 488.128ZM392.263 473.198L427.365 458.643C426.962 457.672 426.755 456.631 426.755 455.58H388.755H350.755C350.755 466.621 352.932 477.554 357.161 487.753L392.263 473.198ZM388.755 455.58L426.755 455.713C426.758 454.978 426.816 454.244 426.931 453.517L389.393 447.609L351.855 441.701C351.139 446.248 350.772 450.843 350.755 455.446L388.755 455.58ZM389.393 447.609L426.845 454.04C427.17 452.146 428.153 450.428 429.621 449.19L405.111 420.15L380.602 391.111C365.447 403.901 355.297 421.634 351.941 441.178L389.393 447.609ZM405.111 420.15L429.621 449.19C431.087 447.952 432.943 447.273 434.861 447.271L434.819 409.271L434.776 371.271C414.944 371.293 395.758 378.32 380.602 391.111L405.111 420.15ZM434.819 409.271V447.271H803.406V409.271V371.271H434.819V409.271ZM803.406 409.271V447.271C898.243 447.271 986.195 371.784 1002.24 277.944L964.787 271.539L927.331 265.133C917.398 323.213 860.466 371.271 803.406 371.271V409.271ZM964.787 271.539L1002.24 277.966L1026.55 136.328L989.094 129.901L951.641 123.474L927.335 265.111L964.787 271.539ZM989.094 129.901V91.9011H291.289V129.901V167.901H989.094V129.901ZM291.289 129.901L319.257 155.626C342.366 130.502 370.44 110.452 401.7 96.7456L386.441 61.944L371.181 27.1423C330.283 45.075 293.554 71.3068 263.321 104.176L291.289 129.901ZM386.441 61.944L401.7 96.7456C432.96 83.0391 466.725 75.9748 500.857 76.0001L500.885 38.0001L500.913 8.82674e-05C456.257 -0.0329515 412.08 9.20966 371.181 27.1423L386.441 61.944ZM500.885 38.0001V76.0001H1097V38.0001V7.78669e-05H500.885V38.0001ZM1097 38.0001L1059.54 31.613L1019.69 265.311L1057.15 271.698L1094.61 278.085L1134.46 44.3872L1097 38.0001ZM1057.15 271.698L1019.72 265.168C1008.63 328.708 967.855 386.826 912.687 423.657L933.786 455.261L954.885 486.865C1025.31 439.846 1079.53 364.536 1094.59 278.228L1057.15 271.698ZM1475.46 181.949L1512.93 188.321C1520.57 143.351 1521.49 101.132 1506 69.8981L1471.96 86.7801L1437.91 103.662C1441.98 111.856 1445.23 133.083 1438 175.577L1475.46 181.949ZM1471.96 86.7801L1506.37 70.6539C1499.76 56.5501 1490.27 43.985 1478.51 33.7669L1453.58 62.4478L1428.65 91.1287C1432.41 94.3906 1435.44 98.4023 1437.55 102.906L1471.96 86.7801ZM1453.58 62.4478L1478.51 33.7669C1466.75 23.5489 1452.99 15.9041 1438.1 11.3242L1426.93 47.6444L1415.76 83.9647C1420.51 85.4265 1424.9 87.8667 1428.65 91.1287L1453.58 62.4478ZM1426.93 47.6444L1438.43 11.4275C1412.42 3.16651 1376.78 0 1334.4 0V38V76C1374.91 76 1400.95 79.2631 1415.43 83.8614L1426.93 47.6444ZM1334.4 38V0H1203.39V38V76H1334.4V38ZM1203.39 38L1165.92 31.635L1080.01 537.29L1117.48 543.655L1154.94 550.02L1240.85 44.365L1203.39 38ZM1117.48 543.655V581.655H1269.45V543.655V505.655H1117.48V543.655ZM1269.45 543.655V581.655C1321.76 581.655 1363.45 578.931 1388.14 570.553L1375.92 534.568L1363.71 498.584C1352.7 502.321 1323.41 505.655 1269.45 505.655V543.655ZM1375.92 534.568L1387.88 570.638C1414.11 561.944 1436.5 544.394 1451.21 520.999L1419.04 500.773L1386.87 480.547C1381.55 489.009 1373.45 495.354 1363.97 498.498L1375.92 534.568ZM1419.04 500.773L1450.94 521.419C1465.78 498.496 1475.02 467.127 1481.06 431.186L1443.59 424.893L1406.11 418.599C1400.67 450.994 1393.55 470.211 1387.14 480.127L1419.04 500.773ZM1443.59 424.893L1481.05 431.253L1489.02 384.306L1451.55 377.946L1414.09 371.586L1406.12 418.533L1443.59 424.893ZM1451.55 377.946L1489.02 384.295C1494.97 349.208 1495.34 314.681 1481.65 287.569L1447.73 304.696L1413.81 321.824C1416.22 326.594 1419.3 340.847 1414.09 371.597L1451.55 377.946ZM1447.73 304.696L1481.65 287.569C1465.95 256.471 1433.35 241.24 1400.68 233.521L1391.94 270.502L1383.2 307.484C1408.55 313.474 1413.41 321.039 1413.81 321.824L1447.73 304.696ZM1391.94 270.502L1400.1 307.617C1430.98 300.83 1459.13 289.831 1478.37 270.325L1451.32 243.641L1424.26 216.958C1420.39 220.885 1409.49 227.741 1383.79 233.388L1391.94 270.502ZM1451.32 243.641L1478.37 270.325C1498.66 249.75 1507.69 218.967 1512.92 188.343L1475.46 181.949L1438 175.555C1433.19 203.754 1427.08 214.1 1424.26 216.958L1451.32 243.641ZM1322.93 362.802L1285.46 356.463L1277.49 403.569L1314.96 409.908L1352.43 416.247L1360.4 369.141L1322.93 362.802ZM1314.96 409.908L1277.48 403.638C1275.96 412.736 1274.43 418.521 1273.21 421.873C1272.63 423.485 1272.33 423.926 1272.51 423.617C1272.67 423.346 1273.73 421.606 1276.12 419.556L1300.85 448.406L1325.58 477.256C1335.99 468.339 1341.46 456.587 1344.63 447.86C1348.07 438.399 1350.53 427.565 1352.44 416.178L1314.96 409.908ZM1300.85 448.406L1276.12 419.556C1278.07 417.882 1279.59 417.189 1279.9 417.052C1280.22 416.911 1279.85 417.11 1278.46 417.432C1275.53 418.111 1270.44 418.812 1262.41 419.122L1263.87 457.094L1265.34 495.066C1275.88 494.659 1286.21 493.647 1295.59 491.475C1304.51 489.413 1315.88 485.574 1325.58 477.256L1300.85 448.406ZM1263.87 457.094L1301.34 463.426L1325.25 321.948L1287.78 315.616L1250.31 309.284L1226.41 450.762L1263.87 457.094ZM1287.78 315.616L1286.54 353.596C1290.7 353.732 1294.13 353.966 1296.92 354.259C1299.74 354.557 1301.59 354.885 1302.65 355.128C1303.83 355.396 1303.41 355.414 1302.05 354.772C1300.85 354.201 1296.98 352.202 1293.21 347.566L1322.69 323.587L1352.17 299.607C1341.72 286.765 1326.8 282.681 1319.53 281.026C1310.34 278.931 1299.84 277.991 1289.03 277.636L1287.78 315.616ZM1322.69 323.587L1293.21 347.566C1289.01 342.403 1287.91 337.698 1287.67 336.6C1287.38 335.27 1287.53 335.096 1287.53 336.796C1287.53 340.266 1287 346.566 1285.38 356.932L1322.93 362.802L1360.47 368.672C1362.28 357.119 1363.54 346.162 1363.53 336.68C1363.52 331.904 1363.2 326.33 1361.97 320.631C1360.8 315.164 1358.28 307.122 1352.17 299.607L1322.69 323.587ZM1354.81 172.623L1317.39 165.99C1314.82 180.469 1312.5 191.301 1310.47 198.877C1309.45 202.665 1308.64 205.159 1308.08 206.64C1307.37 208.499 1307.55 207.481 1309.05 205.326L1340.22 227.063L1371.39 248.799C1377.82 239.58 1381.49 227.484 1383.88 218.544C1386.71 207.973 1389.48 194.747 1392.22 179.257L1354.81 172.623ZM1340.22 227.063L1309.27 205.014C1310.72 202.978 1312.39 201.404 1313.98 200.272C1315.53 199.174 1316.78 198.643 1317.39 198.424C1318.4 198.062 1317.63 198.548 1313.92 198.548V236.548V274.548C1330.67 274.548 1355.71 270.817 1371.17 249.111L1340.22 227.063ZM1313.92 236.548V198.548C1310.67 198.548 1305.17 198.542 1298.1 199.04L1300.77 236.946L1303.44 274.852C1307.69 274.553 1310.96 274.548 1313.92 274.548V236.548ZM1300.77 236.946L1338.24 243.317L1357.36 130.852L1319.9 124.481L1282.44 118.11L1263.31 230.575L1300.77 236.946ZM1319.9 124.481L1321.21 162.458C1326.64 162.271 1332.08 162.853 1337.35 164.187L1346.68 127.35L1356.01 90.5134C1343.78 87.4183 1331.19 86.0683 1318.59 86.5037L1319.9 124.481ZM1346.68 127.35L1331.05 161.99C1327.87 160.552 1325.07 158.361 1322.92 155.604L1352.86 132.208L1382.81 108.812C1377.38 101.862 1370.34 96.3365 1362.3 92.711L1346.68 127.35ZM1352.86 132.208L1322.92 155.604C1320.77 152.847 1319.32 149.61 1318.69 146.171L1356.08 139.386L1393.47 132.601C1391.9 123.926 1388.24 115.762 1382.81 108.812L1352.86 132.208ZM1356.08 139.386L1318.54 145.251C1319.51 151.455 1319.26 157.788 1317.82 163.899L1354.81 172.623L1391.79 181.348C1395.49 165.674 1396.11 149.432 1393.63 133.521L1356.08 139.386ZM1809.06 81.8383L1843.04 64.8194C1835.79 50.3426 1825.34 37.7012 1812.5 27.849L1789.37 58.0044L1766.25 88.1598C1769.97 91.0101 1772.99 94.6678 1775.09 98.8572L1809.06 81.8383ZM1789.37 58.0044L1812.5 27.849C1799.65 17.9967 1784.73 11.1907 1768.87 7.94488L1761.25 45.1735L1753.63 82.4022C1758.22 83.341 1762.53 85.3095 1766.25 88.1598L1789.37 58.0044ZM1761.25 45.1735L1769.59 8.10062C1743.59 2.24977 1697.93 0 1636.69 0V38V76C1699.02 76 1736.4 78.5326 1752.91 82.2465L1761.25 45.1735ZM1636.69 38V0H1543.6V38V76H1636.69V38ZM1543.6 38L1506.14 31.6408L1420.31 537.296L1457.77 543.655L1495.24 550.014L1581.07 44.3592L1543.6 38ZM1457.77 543.655V581.655H1589.27V543.655V505.655H1457.77V543.655ZM1589.27 543.655L1626.73 550.005L1665.38 321.966L1627.92 315.616L1590.45 309.266L1551.8 537.304L1589.27 543.655ZM1627.92 315.616V353.616C1631.37 353.616 1633.98 353.774 1635.85 353.986C1637.78 354.205 1638.52 354.434 1638.39 354.395C1638.33 354.376 1636.55 353.848 1634.1 352.108C1631.46 350.238 1628.02 346.935 1625.56 341.823L1659.8 325.34L1694.04 308.857C1685.89 291.926 1670.62 284.777 1660.62 281.719C1650.17 278.522 1638.72 277.616 1627.92 277.616V315.616ZM1659.8 325.34L1625.56 341.823C1623.63 337.827 1623.54 335.182 1623.63 336.087C1623.68 336.546 1623.78 338.113 1623.65 341.154C1623.4 347.243 1622.37 356.409 1620.19 369.147L1657.64 375.555L1695.1 381.962C1697.54 367.681 1699.14 354.967 1699.59 344.318C1699.94 335.868 1700.09 321.43 1694.04 308.857L1659.8 325.34ZM1657.64 375.555L1620.18 369.214L1591.73 537.313L1629.19 543.655L1666.66 549.996L1695.11 381.896L1657.64 375.555ZM1629.19 543.655V581.655H1751.21V543.655V505.655H1629.19V543.655ZM1751.21 543.655L1788.67 550.01L1811.3 416.582L1773.84 410.227L1736.37 403.872L1713.74 537.3L1751.21 543.655ZM1773.84 410.227L1811.29 416.675C1814.84 396.037 1817.48 378.997 1819.15 365.739C1820.68 353.629 1821.85 341.589 1821.23 332.803L1783.32 335.463L1745.42 338.123C1745.38 337.656 1745.47 338.774 1745.2 342.476C1744.95 345.841 1744.49 350.377 1743.75 356.218C1742.28 367.888 1739.85 383.687 1736.39 403.779L1773.84 410.227ZM1783.32 335.463L1821.02 330.673C1818.87 313.722 1812.56 297.566 1802.66 283.638L1771.69 305.653L1740.71 327.667C1743.36 331.393 1745.05 335.716 1745.63 340.252L1783.32 335.463ZM1771.69 305.653L1803.19 284.395C1787.79 261.581 1759.78 250.054 1733.74 243.051L1723.87 279.748L1714 316.445C1724.56 319.284 1731.71 322.158 1736.25 324.618C1740.93 327.154 1741.15 328.327 1740.19 326.911L1771.69 305.653ZM1723.87 279.748L1727.39 317.585C1760.55 314.504 1792.69 304.675 1814.1 280.623L1785.71 255.358L1757.33 230.094C1754.62 233.141 1745.53 239.572 1720.36 241.911L1723.87 279.748ZM1785.71 255.358L1814.1 280.623C1833.94 258.33 1844.54 222.18 1851.31 182.428L1813.85 176.051L1776.39 169.673C1769.76 208.565 1761.61 225.286 1757.33 230.094L1785.71 255.358ZM1813.85 176.051L1851.33 182.297C1858.77 137.619 1859.14 95.7732 1842.78 64.3089L1809.06 81.8383L1775.35 99.3677C1779.71 107.756 1783.26 128.4 1776.36 169.804L1813.85 176.051ZM1693.75 163.537L1656.3 157.099L1651.51 184.917L1688.96 191.354L1726.42 197.792L1731.2 169.975L1693.75 163.537ZM1688.96 191.354L1651.49 185.065C1649.84 194.919 1648.14 200.819 1646.91 203.895C1646.32 205.361 1646.15 205.384 1646.7 204.593C1647.24 203.816 1649.07 201.394 1652.72 199.089L1673.03 231.207L1693.33 263.326C1706.94 254.724 1713.79 241.318 1717.47 232.117C1721.54 221.942 1724.35 210.107 1726.44 197.644L1688.96 191.354ZM1673.03 231.207L1656.6 196.943C1652.63 198.842 1648.25 199.676 1643.86 199.362L1641.15 237.265L1638.43 275.168C1655.99 276.426 1673.58 273.084 1689.46 265.472L1673.03 231.207ZM1641.15 237.265L1678.61 243.61L1697.66 131.145L1660.2 124.8L1622.73 118.454L1603.68 230.92L1641.15 237.265ZM1660.2 124.8V162.8C1662.99 162.8 1665.2 162.918 1666.89 163.087C1668.6 163.258 1669.56 163.46 1669.94 163.554C1670.33 163.653 1669.78 163.558 1668.64 162.983C1667.47 162.396 1665.43 161.174 1663.23 158.941L1690.32 132.292L1717.41 105.643C1708.3 96.3788 1697.21 92.0374 1688.41 89.8321C1679.34 87.5612 1669.67 86.7998 1660.2 86.7998V124.8ZM1690.32 132.292L1663.23 158.941C1660.34 156.005 1658.78 153.064 1657.99 151.074C1657.6 150.091 1657.38 149.313 1657.26 148.819C1657.15 148.324 1657.11 148.047 1657.11 148.035C1657.11 148.022 1657.13 148.211 1657.14 148.633C1657.15 149.052 1657.14 149.653 1657.1 150.454C1657.01 152.08 1656.77 154.302 1656.28 157.2L1693.75 163.537L1731.21 169.874C1732.89 159.962 1733.77 149.526 1732.63 139.484C1731.52 129.686 1728.03 116.441 1717.41 105.643L1690.32 132.292ZM2039.06 331.238L2075.53 341.931L2103.74 245.726L2067.27 235.033L2030.81 224.34L2002.6 320.545L2039.06 331.238ZM2067.27 235.033V197.033H1973.24V235.033V273.033H2067.27V235.033ZM1973.24 235.033L2010.7 241.391L2026.96 145.584L1989.49 139.227L1952.03 132.869L1935.77 228.676L1973.24 235.033ZM1989.49 139.227V177.227H2137.01V139.227V101.227H1989.49V139.227ZM2137.01 139.227L2173.53 149.722L2202.62 48.4949L2166.1 38L2129.57 27.5051L2100.49 128.732L2137.01 139.227ZM2166.1 38V0H1875.21V38V76H2166.1V38ZM1875.21 38L1837.75 31.6398L1751.92 537.215L1789.38 543.575L1826.84 549.935L1912.67 44.3602L1875.21 38ZM1789.38 543.575V581.575H2017.31V543.575V505.575H1789.38V543.575ZM2017.31 543.575L2053.82 554.104L2082.99 452.957L2046.47 442.428L2009.96 431.899L1980.79 533.046L2017.31 543.575ZM2046.47 442.428V404.428H1938.01V442.428V480.428H2046.47V442.428ZM1938.01 442.428L1975.47 448.792L1994.36 337.602L1956.9 331.238L1919.43 324.874L1900.55 436.064L1938.01 442.428ZM1956.9 331.238V369.238H2039.06V331.238V293.238H1956.9V331.238ZM2203.79 38L2167.42 26.9991L2014.48 532.654L2050.86 543.655L2087.23 554.656L2240.16 49.0009L2203.79 38ZM2050.86 543.655V581.655H2186.82V543.655V505.655H2050.86V543.655ZM2186.82 543.655L2223.63 553.082L2246.98 461.898L2210.17 452.471L2173.35 443.044L2150 534.228L2186.82 543.655ZM2210.17 452.471V490.471H2257.11V452.471V414.471H2210.17V452.471ZM2257.11 452.471L2219.25 449.154L2211.28 540.098L2249.14 543.416L2286.99 546.733L2294.96 455.788L2257.11 452.471ZM2249.14 543.416V581.416H2382.86V543.416V505.416H2249.14V543.416ZM2382.86 543.416L2420.86 544.236L2431.77 38.8207L2393.78 38L2355.79 37.1793L2344.87 542.595L2382.86 543.416ZM2393.78 38V0H2203.79V38V76H2393.78V38ZM2268.9 363.041V325.041H2223.48V363.041V401.041H2268.9V363.041ZM2223.48 363.041L2260.35 372.205C2271.19 328.597 2291.35 258.691 2321.08 161.947L2284.76 150.784L2248.44 139.621C2218.66 236.51 2197.97 308.109 2186.6 353.878L2223.48 363.041ZM2284.76 150.784L2246.91 147.417C2239.4 231.896 2234.07 303.122 2230.96 361L2268.9 363.041L2306.85 365.082C2309.9 308.396 2315.14 238.117 2322.61 154.151L2284.76 150.784ZM4126.26 38L4090.84 24.2518C4060.04 103.609 4036.19 171.003 4019.45 226.242L4055.81 237.265L4092.18 248.288C4108.16 195.552 4131.28 130.102 4161.69 51.7482L4126.26 38ZM4055.81 237.265L4093.63 240.976C4097.23 204.249 4097.75 135.599 4095.64 37.1822L4057.65 38L4019.65 38.8178C4021.79 137.86 4021.08 202.053 4017.99 233.554L4055.81 237.265ZM4057.65 38V0H3936.91V38V76H4057.65V38ZM3936.91 38L3899.16 42.4107L3936.86 364.981L3974.6 360.57L4012.35 356.159L3974.65 33.5893L3936.91 38ZM3974.6 360.57L3937.12 354.296L3934.26 371.433L3971.73 377.707L4009.21 383.981L4012.08 366.844L3974.6 360.57ZM3971.73 377.707L3976.91 415.352L4101.48 398.216L4096.3 360.57L4091.12 322.925L3966.56 340.061L3971.73 377.707ZM4096.3 360.57L4130.72 376.655L4281.43 54.0849L4247 38L4212.58 21.9151L4061.87 344.485L4096.3 360.57ZM4247 38V0H4126.26V38V76H4247V38ZM3717.83 38L3681.46 26.9937L3563.27 417.553L3599.64 428.559L3636.01 439.566L3754.2 49.0063L3717.83 38ZM3599.64 428.559L3604.82 466.205L3905.59 424.838L3900.41 387.192L3895.23 349.546L3594.46 390.914L3599.64 428.559ZM3900.41 387.192L3938.4 387.998L3945.81 38.8064L3907.82 38L3869.83 37.1936L3862.42 386.386L3900.41 387.192ZM3907.82 38V0H3717.83V38V76H3907.82V38ZM3782.94 363.041V325.041H3737.67V363.041V401.041H3782.94V363.041ZM3737.67 363.041L3774.58 372.08C3785.24 328.57 3805.38 258.74 3835.26 162.001L3798.96 150.784L3762.65 139.567C3732.71 236.46 3712 308.135 3700.76 354.002L3737.67 363.041ZM3798.96 150.784L3761.11 147.37C3753.49 231.858 3748.11 303.101 3744.99 361L3782.94 363.041L3820.88 365.082C3823.93 308.417 3829.23 238.156 3836.8 154.198L3798.96 150.784ZM3546.4 38L3510.19 26.4798C3472.68 144.408 3439.78 265.141 3411.5 388.675L3448.54 397.155L3485.58 405.635C3513.41 284.1 3545.75 165.397 3582.62 49.5202L3546.4 38ZM3448.54 397.155L3486.37 400.729L3504.54 208.399L3466.71 204.825L3428.88 201.25L3410.71 393.581L3448.54 397.155ZM3466.71 204.825L3504.56 208.202C3513.11 112.343 3517.86 55.5312 3518.54 39.6386L3480.58 38L3442.61 36.3614C3442.02 50.0131 3437.52 104.418 3428.86 201.447L3466.71 204.825ZM3480.58 38V0H3344.14V38V76H3480.58V38ZM3344.14 38L3307.8 26.8793C3263.9 170.342 3231.84 287.048 3211.82 376.678L3248.91 384.96L3285.99 393.243C3305.4 306.35 3336.83 191.749 3380.48 49.1207L3344.14 38ZM3280.3 38V0H3152.79V38V76H3280.3V38ZM3152.79 38L3114.85 35.9748L3090.54 491.415L3128.49 493.44L3166.43 495.465L3190.74 40.0252L3152.79 38ZM3128.49 493.44L3133.61 531.093L3317.55 506.065L3312.42 468.412L3307.3 430.759L3123.36 455.787L3128.49 493.44ZM3312.42 468.412L3348.7 479.706C3377.49 387.222 3396.97 323.717 3407.05 289.436L3370.6 278.712L3334.14 267.988C3324.25 301.617 3304.94 364.579 3276.14 457.119L3312.42 468.412ZM3370.6 278.712L3332.65 276.681C3329.12 342.687 3327.13 404.117 3326.7 460.951L3364.7 461.239L3402.7 461.526C3403.12 406.028 3405.06 345.774 3408.54 280.743L3370.6 278.712ZM3364.7 461.239L3369.87 498.885L3565.92 471.944L3560.75 434.298L3555.58 396.652L3359.53 423.593L3364.7 461.239ZM3560.75 434.298L3597.29 444.732L3710.46 48.4342L3673.92 38L3637.38 27.5658L3524.21 423.864L3560.75 434.298ZM3673.92 38V0H3546.4V38V76H3673.92V38ZM2915.7 38L2879.33 27.0028L2726.47 532.578L2762.85 543.575L2799.22 554.572L2952.08 48.9972L2915.7 38ZM2762.85 543.575L2768.03 581.221L2908.85 561.852L2903.67 524.207L2898.49 486.561L2757.67 505.929L2762.85 543.575ZM2903.67 524.207L2940.48 533.652L2958.89 461.917L2922.08 452.471L2885.27 443.025L2866.86 514.761L2903.67 524.207ZM2922.08 452.471V490.471H2969.1V452.471V414.471H2922.08V452.471ZM2969.1 452.471L2931.25 449.018L2925.44 512.783L2963.28 516.236L3001.12 519.689L3006.94 455.924L2969.1 452.471ZM2963.28 516.236L2968.46 553.882L3101.23 535.629L3096.05 497.983L3090.88 460.337L2958.1 478.59L2963.28 516.236ZM3096.05 497.983L3134.04 498.78L3143.69 38.7965L3105.69 38L3067.7 37.2035L3058.06 497.187L3096.05 497.983ZM3105.69 38V0H2915.7V38V76H3105.69V38ZM2980.57 363.041V325.041H2935.31V363.041V401.041H2980.57V363.041ZM2935.31 363.041L2972.21 372.122C2982.92 328.579 3003.07 258.723 3032.9 161.983L2996.59 150.784L2960.28 139.585C2930.4 236.477 2909.69 308.126 2898.41 353.96L2935.31 363.041ZM2996.59 150.784L2958.74 147.441C2951.28 231.895 2945.91 303.075 2942.63 360.894L2980.57 363.041L3018.51 365.188C3021.72 308.443 3027.03 238.118 3034.44 154.127L2996.59 150.784ZM2817.36 38V0H2694.07V38V76H2817.36V38ZM2694.07 38L2659.65 21.8963L2567.77 218.292L2602.18 234.396L2636.6 250.499L2728.49 54.1037L2694.07 38ZM2602.18 234.396L2639.65 240.75L2672.96 44.3548L2635.5 38L2598.03 31.6452L2564.72 228.041L2602.18 234.396ZM2635.5 38V0H2504.08V38V76H2635.5V38ZM2504.08 38L2466.62 31.6398L2380.79 537.215L2418.25 543.575L2455.71 549.935L2541.54 44.3602L2504.08 38ZM2418.25 543.575V581.575H2549.67V543.575V505.575H2418.25V543.575ZM2549.67 543.575L2587.13 549.94L2623.95 333.219L2586.48 326.855L2549.02 320.49L2512.2 537.21L2549.67 543.575ZM2586.48 326.855L2548.59 329.725L2565.01 546.445L2602.9 543.575L2640.79 540.705L2624.38 323.984L2586.48 326.855ZM2602.9 543.575V581.575H2738.78V543.575V505.575H2602.9V543.575ZM2738.78 543.575L2776.47 538.744L2740.93 261.447L2703.24 266.278L2665.55 271.109L2701.09 548.406L2738.78 543.575ZM2703.24 266.278L2737.23 283.27L2851.35 54.9921L2817.36 38L2783.37 21.0079L2669.25 249.286L2703.24 266.278ZM3965.52 413.973L3928.05 407.615L3906.06 537.217L3943.52 543.575L3980.99 549.933L4002.98 420.331L3965.52 413.973ZM3943.52 543.575V581.575H4065.3V543.575V505.575H3943.52V543.575ZM4065.3 543.575L4102.76 549.927L4126.75 408.449L4089.28 402.097L4051.82 395.745L4027.83 537.223L4065.3 543.575ZM4089.28 402.097L4085.65 364.271L3961.89 376.147L3965.52 413.973L3969.15 451.799L4092.91 439.923L4089.28 402.097ZM3772.34 432.385L3734.48 429.129L3724.91 540.319L3762.78 543.575L3800.64 546.831L3810.2 435.642L3772.34 432.385ZM3762.78 543.575V581.575H3897.14V543.575V505.575H3762.78V543.575ZM3897.14 543.575L3935.13 544.385L3937.76 421.08L3899.77 420.27L3861.78 419.46L3859.15 542.765L3897.14 543.575ZM3899.77 420.27L3896.17 382.44L3768.74 394.556L3772.34 432.385L3775.94 470.215L3903.37 458.099L3899.77 420.27ZM3593.42 449.522L3557.05 438.519L3528.6 532.573L3564.97 543.575L3601.35 554.578L3629.8 460.525L3593.42 449.522ZM3564.97 543.575V581.575H3700.85V543.575V505.575H3564.97V543.575ZM3700.85 543.575L3737.66 553.009L3765.08 446.044L3728.27 436.61L3691.46 427.175L3664.04 534.141L3700.85 543.575ZM3728.27 436.61L3724.65 398.783L3589.8 411.695L3593.42 449.522L3597.05 487.349L3731.89 474.437L3728.27 436.61ZM3364.7 471.361H3326.7C3326.7 496.267 3326.7 520.944 3327.44 544.754L3365.42 543.575L3403.4 542.396C3402.7 519.977 3402.7 496.511 3402.7 471.361H3364.7ZM3365.42 543.575V581.575H3529.43V543.575V505.575H3365.42V543.575ZM3529.43 543.575L3565.96 554.043L3591.86 463.656L3555.33 453.188L3518.8 442.721L3492.9 533.107L3529.43 543.575ZM3555.33 453.188L3551.72 415.36L3361.1 433.533L3364.7 471.361L3368.31 509.19L3558.94 491.017L3555.33 453.188ZM3128.33 493.998L3090.38 492.046L3087.83 541.623L3125.78 543.575L3163.73 545.527L3166.28 495.95L3128.33 493.998ZM3125.78 543.575V581.575H3288.83V543.575V505.575H3125.78V543.575ZM3288.83 543.575L3325.1 554.928L3346.06 487.975L3309.79 476.622L3273.53 465.269L3252.57 532.222L3288.83 543.575ZM3309.79 476.622L3306.17 438.795L3124.71 456.171L3128.33 493.998L3131.95 531.825L3313.41 514.449L3309.79 476.622ZM2903.67 524.286L2866.86 514.857L2861.92 534.146L2898.73 543.575L2935.54 553.004L2940.48 533.716L2903.67 524.286ZM2898.73 543.575V505.575H2762.85V543.575V581.575H2898.73V543.575ZM2762.85 543.575L2768.01 581.224L2908.83 561.935L2903.67 524.286L2898.51 486.638L2757.69 505.927L2762.85 543.575ZM3096.05 497.904L3058.06 497.108L3057.1 542.78L3095.09 543.575L3133.09 544.371L3134.04 498.699L3096.05 497.904ZM3095.09 543.575V505.575H2960.73V543.575V581.575H3095.09V543.575ZM2960.73 543.575L2998.57 547.094L3001.12 519.675L2963.28 516.156L2925.44 512.637L2922.89 540.056L2960.73 543.575ZM2963.28 516.156L2968.46 553.802L3101.23 535.549L3096.05 497.904L3090.88 460.258L2958.1 478.51L2963.28 516.156ZM286.587 432.943L249.133 426.521L221.32 588.723L258.773 595.145L296.227 601.567L324.04 439.366L286.587 432.943ZM3248.91 384.96L3286.75 388.385L3318.15 41.425L3280.3 38L3242.46 34.575L3211.06 381.535L3248.91 384.96Z" fill="white" mask="url(#path-3-outside-1_144_189)"/>
<defs>
<linearGradient id="paint0_linear_144_189" x1="7064.16" y1="187.768" x2="3571.75" y2="3608.04" gradientUnits="userSpaceOnUse">
<stop stop-color="#22B184"/>
<stop offset="0.09" stop-color="#37B481"/>
<stop offset="1" stop-color="#A0CD54"/>
</linearGradient>
<linearGradient id="paint1_linear_144_189" x1="38420.5" y1="-775.809" x2="31195.7" y2="10773.1" gradientUnits="userSpaceOnUse">
<stop stop-color="#22B184"/>
<stop offset="1" stop-color="#A0CD54"/>
</linearGradient>
<linearGradient id="paint2_linear_144_189" x1="34992.2" y1="-638.924" x2="27789.4" y2="10951.2" gradientUnits="userSpaceOnUse">
<stop stop-color="#22B184"/>
<stop offset="1" stop-color="#A0CD54"/>
</linearGradient>
<linearGradient id="paint3_linear_144_189" x1="30022" y1="-530.295" x2="22679.9" y2="10771" gradientUnits="userSpaceOnUse">
<stop stop-color="#22B184"/>
<stop offset="1" stop-color="#A0CD54"/>
</linearGradient>
<linearGradient id="paint4_linear_144_189" x1="30034.9" y1="-403.981" x2="22996.4" y2="11501.2" gradientUnits="userSpaceOnUse">
<stop stop-color="#22B184"/>
<stop offset="1" stop-color="#A0CD54"/>
</linearGradient>
<linearGradient id="paint5_linear_144_189" x1="8998.83" y1="99.5182" x2="-2655.25" y2="14742.6" gradientUnits="userSpaceOnUse">
<stop stop-color="#22B184"/>
<stop offset="1" stop-color="#A0CD54"/>
</linearGradient>
<linearGradient id="paint6_linear_144_189" x1="13469.1" y1="20.9592" x2="3756.42" y2="14140.9" gradientUnits="userSpaceOnUse">
<stop stop-color="#22B184"/>
<stop offset="1" stop-color="#A0CD54"/>
</linearGradient>
<linearGradient id="paint7_linear_144_189" x1="11091.6" y1="-118.654" x2="2179.8" y2="8416.26" gradientUnits="userSpaceOnUse">
<stop stop-color="#22B184"/>
<stop offset="1" stop-color="#A0CD54"/>
</linearGradient>
<linearGradient id="paint8_linear_144_189" x1="21846.2" y1="-180.788" x2="14807.6" y2="11726.2" gradientUnits="userSpaceOnUse">
<stop stop-color="#22B184"/>
<stop offset="1" stop-color="#A0CD54"/>
</linearGradient>
<linearGradient id="paint9_linear_144_189" x1="22196.6" y1="-284.784" x2="14690.8" y2="10620.3" gradientUnits="userSpaceOnUse">
<stop stop-color="#22B184"/>
<stop offset="1" stop-color="#A0CD54"/>
</linearGradient>
</defs>
</svg>
