<svg width="4247" height="835" viewBox="0 0 4247 835" fill="none" xmlns="http://www.w3.org/2000/svg">
<path d="M1049.74 831.413L1089.58 602.737H1239.33L1232.24 642.59H1132.14L1122.5 698.384H1209.13L1202.03 738.237H1115.72L1099.78 830.377L1049.74 831.413Z" fill="black"/>
<path d="M1286.75 831.413H1236.86L1276.71 602.737H1326.59L1286.75 831.413Z" fill="black"/>
<path d="M1525.35 602.737L1518.26 645.618H1454.5L1421.99 831.812H1372.74L1404.93 645.618H1341.18L1348.27 603.135L1525.35 602.737Z" fill="black"/>
<path d="M1580.74 692.246L1556.27 831.094H1506.23L1546.07 602.737H1584.41L1659.72 740.628L1683.63 602.737H1733.52L1693.67 831.413H1655.73L1580.74 692.246Z" fill="black"/>
<path d="M1750.33 831.413L1790.18 602.737H1939.92L1932.83 642.59H1832.97L1823.33 698.384H1909.96L1902.87 738.237H1816.08L1807.07 790.205H1906.85L1900.08 830.058L1750.33 831.413Z" fill="black"/>
<path d="M1983.68 758.881C1983.72 763.31 1984.69 767.681 1986.51 771.715C1988.34 775.75 1990.99 779.359 1994.29 782.314C1997.59 785.269 2001.46 787.503 2005.67 788.876C2009.89 790.248 2014.34 790.728 2018.74 790.285C2036.19 790.285 2054.52 783.749 2057.07 766.373C2058.67 757.605 2055.48 749.396 2035.24 741.903L2012.05 733.454C1965.03 716.079 1963.35 684.116 1966.62 665.465C1973.4 624.337 2010.69 598.831 2054.29 598.831C2089.03 598.831 2113.18 615.808 2120.59 648.807L2076.76 669.53C2071.58 646.336 2055.48 643.706 2046.48 643.706C2031.01 643.706 2018.1 649.604 2015.55 664.987C2014.6 670.885 2014.28 681.646 2035.56 689.457L2057.39 697.427C2105.21 714.724 2109.27 744.773 2105.69 765.656C2097 813.479 2052.61 834.92 2012.68 834.92C1969.81 834.92 1934.11 810.132 1937.61 767.648L1983.68 758.881Z" fill="black"/>
<path d="M2175.66 758.881C2175.7 763.31 2176.67 767.681 2178.5 771.715C2180.32 775.75 2182.97 779.359 2186.27 782.314C2189.57 785.269 2193.45 787.503 2197.66 788.876C2201.87 790.248 2206.32 790.728 2210.73 790.285C2228.18 790.285 2246.51 783.749 2249.06 766.373C2250.65 757.605 2247.46 749.396 2227.14 741.903L2204.03 733.454C2157.01 716.079 2155.34 684.116 2158.61 665.465C2165.38 624.337 2202.68 598.831 2246.27 598.831C2281.02 598.831 2305.16 615.808 2312.58 648.807L2268.66 669.53C2263.48 646.336 2247.39 643.706 2238.38 643.706C2222.92 643.706 2210.01 649.604 2207.46 664.987C2206.5 670.885 2206.18 681.646 2227.38 689.457L2249.3 697.427C2297.11 714.724 2301.18 744.773 2297.59 765.656C2288.91 813.479 2244.52 834.92 2204.59 834.92C2161.71 834.92 2126.01 810.132 2129.52 767.648L2175.66 758.881Z" fill="black"/>
<path d="M814.797 417.261C863.171 459.585 887.637 527.175 874.568 603.295C867.499 640.626 853.087 676.181 832.169 707.897C811.252 739.614 784.244 766.859 752.715 788.053C710.182 817.863 659.681 834.218 607.75 835H0L75.4707 394.943C95.6334 279.609 205.134 185.715 320.531 185.715H765.067L755.504 239.596C753.679 250.301 748.124 260.015 739.825 267.018C731.525 274.02 721.016 277.859 710.158 277.855H304.752C240.12 277.855 178.675 330.302 167.598 394.943L139.784 557.145H646.482C658.664 557.145 670.348 561.979 678.969 570.587C687.59 579.195 692.444 590.872 692.466 603.056C692.448 605.724 692.235 608.388 691.828 611.026C689.988 621.725 684.429 631.429 676.133 638.429C667.837 645.428 657.336 649.273 646.482 649.285H163.453C152.413 649.293 141.73 653.2 133.288 660.316C124.847 667.432 119.188 677.3 117.31 688.182L107.906 742.94H623.53C697.965 742.94 769.291 680.291 782.441 603.295C795.59 526.299 745.861 463.57 671.426 463.57H315.829C309.784 463.581 303.796 462.399 298.208 460.092C292.619 457.786 287.541 454.4 283.262 450.128C278.984 445.856 275.59 440.783 273.274 435.198C270.958 429.613 269.766 423.626 269.766 417.58C269.775 414.911 269.988 412.246 270.403 409.609C272.244 398.89 277.811 389.165 286.122 382.15C294.433 375.136 304.955 371.283 315.829 371.271H684.416C760.365 371.271 832.808 309.498 845.798 233.539L870.105 91.9011H172.3C198.971 62.9045 231.372 39.7635 267.451 23.944C303.531 8.12437 342.502 -0.0290684 381.896 7.78669e-05H978.011L938.164 233.698C925.094 308.622 877.596 375.336 814.797 417.261Z" fill="url(#paint0_linear_119_188)"/>
<path d="M1475.46 143.949C1482.9 100.217 1481.73 68.494 1471.96 48.7801C1467.6 39.4762 1461.34 31.1878 1453.58 24.4478C1445.83 17.7078 1436.75 12.6653 1426.93 9.64442C1406.69 3.21481 1375.85 0 1334.4 0H1203.39L1117.48 505.655H1269.45C1322.58 505.655 1358.07 502.626 1375.93 496.568C1393.78 490.649 1409.03 478.701 1419.04 462.773C1429.67 446.354 1437.85 421.06 1443.59 386.893L1451.56 339.946C1457.13 307.027 1455.78 282.637 1447.73 266.696C1439.68 250.755 1420.95 239.357 1391.94 232.502C1420.24 226.285 1439.76 217.358 1451.32 205.641C1462.87 193.925 1470.44 173.361 1475.46 143.949ZM1322.93 324.802L1314.96 371.908C1311.53 392.393 1306.99 405.146 1300.85 410.406C1294.72 415.667 1282.44 418.377 1263.88 419.094L1287.78 277.616C1307.23 278.254 1318.86 280.884 1322.69 285.587C1326.52 290.289 1326.36 302.883 1322.93 324.802ZM1354.81 134.623C1349.49 164.593 1344.63 182.739 1340.22 189.063C1335.68 195.439 1326.83 198.548 1313.92 198.548C1310.82 198.548 1306.43 198.548 1300.77 198.946L1319.9 86.481C1328.92 86.1694 1337.93 87.1355 1346.68 89.3504C1349.1 90.4443 1351.23 92.1113 1352.86 94.2079C1354.5 96.3045 1355.61 98.7679 1356.08 101.386C1357.81 112.443 1357.38 123.731 1354.81 134.623Z" fill="url(#paint1_linear_119_188)"/>
<path d="M1809.07 43.8383C1804.39 34.5052 1797.66 26.3557 1789.37 20.0044C1781.09 13.6531 1771.47 9.26584 1761.25 7.17354C1740 2.39118 1698.48 0 1636.69 0H1543.6L1457.77 505.655H1589.27L1627.92 277.616C1646.09 277.616 1656.69 280.884 1659.8 287.34C1662.91 293.796 1662.27 310.535 1657.65 337.555L1629.19 505.655H1751.21L1773.84 372.227C1780.85 331.497 1783.96 306.549 1783.32 297.463C1781.96 286.719 1777.96 276.48 1771.69 267.653C1764.52 257.025 1748.58 248.39 1723.87 241.748C1753.04 239.038 1773.65 230.908 1785.71 217.358C1797.78 203.808 1807.15 177.372 1813.85 138.051C1821.02 95.0095 1819.43 63.7648 1809.07 43.8383ZM1693.75 125.537L1688.97 153.354C1685.22 175.672 1679.96 188.823 1673.03 193.207C1663.11 197.963 1652.12 200.051 1641.15 199.265L1660.2 86.7998C1675.5 86.7998 1685.46 89.3504 1690.32 94.2922C1695.18 99.234 1696.46 109.516 1693.75 125.537Z" fill="url(#paint2_linear_119_188)"/>
<path d="M2039.06 293.238L2067.28 197.033H1973.24L1989.49 101.227H2137.01L2166.1 0H1875.21L1789.38 505.575H2017.31L2046.48 404.428H1938.01L1956.9 293.238H2039.06Z" fill="url(#paint3_linear_119_188)"/>
<path d="M2203.79 0L2050.86 505.655H2186.82L2210.17 414.471H2257.11L2249.14 505.416H2382.87L2393.78 0H2203.79ZM2268.9 325.041H2223.48C2234.58 280.353 2255.01 209.6 2284.76 112.784C2277.27 197.007 2271.98 267.759 2268.9 325.041Z" fill="url(#paint4_linear_119_188)"/>
<path d="M4126.26 0C4095.66 78.8558 4072.18 145.277 4055.81 199.265C4059.16 165.151 4059.77 98.7291 4057.65 0H3936.91L3974.6 322.57L3971.74 339.707L4096.3 322.57L4247 0H4126.26Z" fill="url(#paint5_linear_119_188)"/>
<path d="M3717.83 0L3599.64 390.559L3900.41 349.192L3907.82 0H3717.83ZM3782.94 325.041H3737.67C3748.62 280.353 3769.05 209.6 3798.96 112.784C3791.36 197.007 3786.02 267.759 3782.94 325.041Z" fill="url(#paint6_linear_119_188)"/>
<path d="M3546.41 0C3509.21 116.902 3476.59 236.621 3448.54 359.155L3466.71 166.825C3475.32 70.3804 3479.94 14.7722 3480.58 0H3344.14C3300.36 143.046 3268.62 258.699 3248.91 346.96L3280.31 0H3152.79L3128.49 455.44L3312.42 430.412C3341.22 337.9 3360.61 274.667 3370.6 240.712C3367.09 306.23 3365.13 367.073 3364.7 423.239L3560.75 396.298L3673.92 0H3546.41Z" fill="url(#paint7_linear_119_188)"/>
<path d="M2915.7 0L2762.85 505.575L2903.67 486.207L2922.08 414.471H2969.1L2963.28 478.236L3096.05 459.983L3105.7 0H2915.7ZM2980.57 325.041H2935.31C2946.31 280.353 2966.73 209.6 2996.59 112.784C2989.16 197.007 2983.82 267.759 2980.57 325.041Z" fill="url(#paint8_linear_119_188)"/>
<path d="M2817.36 0H2694.07L2602.19 196.396L2635.5 0H2504.08L2418.25 505.575H2549.67L2586.49 288.855L2602.9 505.575H2738.78L2703.24 228.278L2817.36 0Z" fill="url(#paint9_linear_119_188)"/>
<path d="M3965.52 375.973L3943.52 505.575H4065.3L4089.28 364.097L3965.52 375.973Z" fill="#A0CD55"/>
<path d="M3772.34 394.385L3762.78 505.575H3897.14L3899.77 382.27L3772.34 394.385Z" fill="#A0CD55"/>
<path d="M3593.43 411.522L3564.97 505.575H3700.85L3728.27 398.61L3593.43 411.522Z" fill="#A0CD55"/>
<path d="M3364.7 433.361C3364.7 458.389 3364.7 482.46 3365.42 505.575H3529.43L3555.33 415.188L3364.7 433.361Z" fill="#A0CD55"/>
<path d="M3128.33 455.998L3125.78 505.575H3288.83L3309.79 438.622L3128.33 455.998Z" fill="#A0CD55"/>
<path d="M2903.67 486.286L2898.73 505.575H2762.85L2903.67 486.286Z" fill="#A0CD55"/>
<path d="M3096.05 459.904L3095.1 505.575H2960.73L2963.28 478.156L3096.05 459.904Z" fill="#A0CD55"/>
<defs>
<linearGradient id="paint0_linear_119_188" x1="7145.36" y1="149.768" x2="3652.29" y2="3669.29" gradientUnits="userSpaceOnUse">
<stop stop-color="#22B184"/>
<stop offset="0.09" stop-color="#37B481"/>
<stop offset="1" stop-color="#A0CD54"/>
</linearGradient>
<linearGradient id="paint1_linear_119_188" x1="39405.5" y1="-813.809" x2="32272.2" y2="10917.4" gradientUnits="userSpaceOnUse">
<stop stop-color="#22B184"/>
<stop offset="1" stop-color="#A0CD54"/>
</linearGradient>
<linearGradient id="paint2_linear_119_188" x1="35878.4" y1="-676.924" x2="28768" y2="11094.4" gradientUnits="userSpaceOnUse">
<stop stop-color="#22B184"/>
<stop offset="1" stop-color="#A0CD54"/>
</linearGradient>
<linearGradient id="paint3_linear_119_188" x1="30764.9" y1="-568.295" x2="23509.6" y2="10921.4" gradientUnits="userSpaceOnUse">
<stop stop-color="#22B184"/>
<stop offset="1" stop-color="#A0CD54"/>
</linearGradient>
<linearGradient id="paint4_linear_119_188" x1="30778.2" y1="-441.981" x2="23837.6" y2="11636.1" gradientUnits="userSpaceOnUse">
<stop stop-color="#22B184"/>
<stop offset="1" stop-color="#A0CD54"/>
</linearGradient>
<linearGradient id="paint5_linear_119_188" x1="9135.8" y1="61.5182" x2="-2439.78" y2="15025.2" gradientUnits="userSpaceOnUse">
<stop stop-color="#22B184"/>
<stop offset="1" stop-color="#A0CD54"/>
</linearGradient>
<linearGradient id="paint6_linear_119_188" x1="13734.9" y1="-17.0408" x2="4123.79" y2="14358" gradientUnits="userSpaceOnUse">
<stop stop-color="#22B184"/>
<stop offset="1" stop-color="#A0CD54"/>
</linearGradient>
<linearGradient id="paint7_linear_119_188" x1="11288.9" y1="-156.654" x2="2369.74" y2="8631.51" gradientUnits="userSpaceOnUse">
<stop stop-color="#22B184"/>
<stop offset="1" stop-color="#A0CD54"/>
</linearGradient>
<linearGradient id="paint8_linear_119_188" x1="22353.5" y1="-218.788" x2="15412.8" y2="11861" gradientUnits="userSpaceOnUse">
<stop stop-color="#22B184"/>
<stop offset="1" stop-color="#A0CD54"/>
</linearGradient>
<linearGradient id="paint9_linear_119_188" x1="22714" y1="-322.784" x2="15286.6" y2="10779.5" gradientUnits="userSpaceOnUse">
<stop stop-color="#22B184"/>
<stop offset="1" stop-color="#A0CD54"/>
</linearGradient>
</defs>
</svg>
